<svg xmlns="http://www.w3.org/2000/svg" xmlns:xlink="http://www.w3.org/1999/xlink" width="93" zoomAndPan="magnify" viewBox="0 0 69.75 20.999999" height="28" preserveAspectRatio="xMidYMid meet" version="1.0"><defs><g/><clipPath id="727e10af2e"><path d="M 7 3 L 11 3 L 11 14.921875 L 7 14.921875 Z M 7 3 " clip-rule="nonzero"/></clipPath><clipPath id="cb9b9cd135"><path d="M 2.882812 0.0390625 L 12 0.0390625 L 12 9 L 2.882812 9 Z M 2.882812 0.0390625 " clip-rule="nonzero"/></clipPath><clipPath id="414d988a92"><path d="M 10 7 L 13 7 L 13 14.921875 L 10 14.921875 Z M 10 7 " clip-rule="nonzero"/></clipPath><clipPath id="0ae6e05aea"><path d="M 4.480469 14.011719 L 15.339844 14.011719 L 15.339844 14.921875 L 4.480469 14.921875 Z M 4.480469 14.011719 " clip-rule="nonzero"/></clipPath></defs><g clip-path="url(#727e10af2e)"><path fill="#ff0000" d="M 8.882812 14.382812 C 8.882812 14.382812 9.765625 8.648438 7.347656 3.558594 L 7.695312 3.558594 C 7.695312 3.558594 9.425781 6.65625 10.105469 14.382812 L 8.882812 14.382812 " fill-opacity="1" fill-rule="nonzero"/></g><path fill="#ff0000" d="M 7.855469 4.4375 C 7.851562 4.433594 7.847656 4.433594 7.847656 4.433594 C 7.847656 4.429688 7.851562 4.429688 7.855469 4.425781 C 7.855469 4.429688 7.855469 4.433594 7.855469 4.4375 Z M 8.292969 4.035156 C 8.222656 4.035156 8.152344 4.054688 8.09375 4.082031 C 8.097656 4.066406 8.097656 4.050781 8.097656 4.035156 C 8.097656 3.792969 7.902344 3.597656 7.660156 3.597656 C 7.417969 3.597656 7.21875 3.792969 7.21875 4.035156 C 7.21875 4.210938 7.324219 4.363281 7.46875 4.433594 C 7.324219 4.503906 7.21875 4.652344 7.21875 4.828125 C 7.21875 5.070312 7.417969 5.265625 7.660156 5.265625 C 7.886719 5.265625 8.074219 5.089844 8.09375 4.867188 C 8.152344 4.894531 8.222656 4.914062 8.292969 4.914062 C 8.535156 4.914062 8.730469 4.71875 8.730469 4.476562 C 8.730469 4.234375 8.535156 4.035156 8.292969 4.035156 " fill-opacity="1" fill-rule="nonzero"/><g clip-path="url(#cb9b9cd135)"><path fill="#ff0000" d="M 8.398438 3.5 C 8.582031 3.351562 8.769531 3.226562 8.960938 3.125 L 9.210938 2.847656 L 9.121094 3.042969 C 9.363281 2.925781 9.609375 2.839844 9.84375 2.78125 L 10.039062 2.605469 L 9.949219 2.753906 C 10.15625 2.707031 10.359375 2.675781 10.542969 2.65625 L 10.902344 2.355469 L 10.71875 2.644531 C 11.28125 2.613281 11.675781 2.6875 11.679688 2.6875 C 10.058594 1.023438 8.15625 2.859375 8.15625 2.859375 C 8.273438 2.632812 8.402344 2.433594 8.535156 2.257812 L 8.660156 1.882812 L 8.652344 2.101562 C 8.90625 1.800781 9.171875 1.574219 9.425781 1.402344 L 9.578125 1.09375 L 9.539062 1.332031 C 10.230469 0.914062 10.820312 0.910156 10.820312 0.910156 C 8.398438 0.0390625 7.71875 2.476562 7.71875 2.476562 C 6.996094 1.179688 5.863281 1.039062 5.863281 1.039062 C 6.046875 1.140625 6.203125 1.257812 6.335938 1.382812 L 6.550781 1.429688 L 6.398438 1.441406 C 6.578125 1.621094 6.710938 1.804688 6.808594 1.976562 L 6.96875 2.058594 L 6.84375 2.039062 C 7.023438 2.363281 7.078125 2.621094 7.078125 2.621094 C 5.511719 0.808594 3.515625 1.742188 3.515625 1.742188 C 3.847656 1.71875 4.175781 1.75 4.484375 1.820312 L 4.722656 1.734375 L 4.582031 1.839844 C 4.804688 1.894531 5.019531 1.964844 5.21875 2.046875 L 5.566406 2.007812 L 5.351562 2.101562 C 5.550781 2.183594 5.726562 2.277344 5.882812 2.363281 L 6.136719 2.335938 L 5.96875 2.410156 C 6.320312 2.613281 6.535156 2.78125 6.535156 2.78125 C 3.953125 1.746094 2.890625 3.46875 2.890625 3.46875 C 3.136719 3.332031 3.398438 3.238281 3.660156 3.183594 L 3.980469 2.890625 L 3.828125 3.15625 C 4.300781 3.082031 4.777344 3.121094 5.171875 3.1875 L 5.449219 3.09375 L 5.292969 3.210938 C 5.789062 3.308594 6.132812 3.445312 6.132812 3.445312 C 2.886719 3.355469 2.886719 6.773438 2.886719 6.773438 C 3.265625 6.035156 3.65625 5.507812 4.019531 5.132812 L 4.191406 4.757812 L 4.160156 4.996094 C 4.496094 4.683594 4.804688 4.496094 5.058594 4.382812 L 5.167969 4.136719 L 5.144531 4.347656 C 5.507812 4.199219 5.742188 4.214844 5.742188 4.214844 C 3.84375 5.683594 4.433594 7.996094 4.433594 7.996094 C 4.578125 7.230469 4.800781 6.613281 5.058594 6.125 L 5.074219 5.675781 L 5.148438 5.953125 C 5.359375 5.585938 5.582031 5.296875 5.789062 5.070312 L 5.804688 4.648438 L 5.890625 4.964844 C 6.316406 4.539062 6.65625 4.386719 6.65625 4.386719 C 4.972656 6.351562 5.882812 8.144531 5.882812 8.144531 C 5.902344 7.824219 5.949219 7.527344 6.011719 7.253906 L 5.914062 6.875 L 6.050781 7.09375 C 6.101562 6.890625 6.164062 6.707031 6.226562 6.535156 L 6.132812 6.171875 L 6.277344 6.40625 C 6.34375 6.238281 6.414062 6.09375 6.476562 5.964844 L 6.351562 5.46875 L 6.5625 5.8125 C 6.71875 5.535156 6.839844 5.386719 6.839844 5.386719 L 7.804688 4.304688 C 8.292969 4.238281 8.734375 4.242188 9.125 4.28125 L 9.382812 4.101562 L 9.234375 4.296875 C 9.589844 4.34375 9.902344 4.421875 10.164062 4.515625 L 10.359375 4.449219 L 10.234375 4.539062 C 10.886719 4.777344 11.234375 5.078125 11.234375 5.078125 C 10.628906 3.320312 8.398438 3.5 8.398438 3.5 " fill-opacity="1" fill-rule="nonzero"/></g><g clip-path="url(#414d988a92)"><path fill="#ff0000" d="M 11.179688 14.347656 C 11.179688 14.347656 10.703125 10.769531 12.210938 7.597656 L 11.921875 7.597656 C 11.921875 7.597656 10.734375 9.527344 10.308594 14.347656 L 11.179688 14.347656 " fill-opacity="1" fill-rule="nonzero"/></g><path fill="#ff0000" d="M 11.984375 7.925781 C 11.984375 7.925781 11.988281 7.929688 11.988281 7.929688 C 11.988281 7.929688 11.984375 7.929688 11.984375 7.933594 C 11.984375 7.929688 11.984375 7.929688 11.984375 7.925781 Z M 11.371094 7.960938 C 11.371094 8.128906 11.507812 8.265625 11.679688 8.265625 C 11.726562 8.265625 11.773438 8.253906 11.816406 8.234375 C 11.828125 8.390625 11.960938 8.511719 12.121094 8.511719 C 12.289062 8.511719 12.425781 8.375 12.425781 8.207031 C 12.425781 8.082031 12.355469 7.976562 12.253906 7.929688 C 12.355469 7.878906 12.425781 7.773438 12.425781 7.652344 C 12.425781 7.484375 12.289062 7.347656 12.121094 7.347656 C 11.953125 7.347656 11.816406 7.484375 11.816406 7.652344 C 11.816406 7.664062 11.816406 7.675781 11.816406 7.6875 C 11.773438 7.664062 11.726562 7.652344 11.679688 7.652344 C 11.507812 7.652344 11.371094 7.789062 11.371094 7.960938 " fill-opacity="1" fill-rule="nonzero"/><path fill="#ff0000" d="M 12.859375 7.835938 C 12.859375 7.835938 12.972656 7.832031 13.152344 7.902344 L 13.140625 7.800781 L 13.195312 7.921875 C 13.320312 7.976562 13.472656 8.070312 13.636719 8.222656 L 13.621094 8.105469 L 13.707031 8.289062 C 13.886719 8.472656 14.078125 8.734375 14.265625 9.097656 C 14.265625 9.097656 14.265625 7.414062 12.667969 7.460938 C 12.667969 7.460938 12.835938 7.390625 13.082031 7.34375 L 13 7.285156 L 13.136719 7.332031 C 13.332031 7.300781 13.566406 7.28125 13.800781 7.316406 L 13.726562 7.183594 L 13.882812 7.332031 C 14.011719 7.359375 14.140625 7.402344 14.261719 7.472656 C 14.261719 7.472656 13.738281 6.621094 12.464844 7.132812 C 12.464844 7.132812 12.574219 7.050781 12.746094 6.949219 L 12.664062 6.914062 L 12.789062 6.925781 C 12.863281 6.882812 12.953125 6.839844 13.050781 6.796875 L 12.945312 6.75 L 13.117188 6.769531 C 13.214844 6.730469 13.320312 6.695312 13.429688 6.667969 L 13.359375 6.617188 L 13.476562 6.660156 C 13.628906 6.625 13.789062 6.609375 13.953125 6.621094 C 13.953125 6.621094 12.972656 6.160156 12.199219 7.054688 C 12.199219 7.054688 12.226562 6.925781 12.316406 6.765625 L 12.253906 6.777344 L 12.332031 6.738281 C 12.382812 6.652344 12.445312 6.558594 12.535156 6.472656 L 12.460938 6.46875 L 12.566406 6.445312 C 12.632812 6.382812 12.707031 6.324219 12.800781 6.273438 C 12.800781 6.273438 12.242188 6.34375 11.886719 6.984375 C 11.886719 6.984375 11.550781 5.78125 10.359375 6.210938 C 10.359375 6.210938 10.648438 6.214844 10.988281 6.417969 L 10.96875 6.300781 L 11.042969 6.453125 C 11.171875 6.539062 11.300781 6.648438 11.425781 6.800781 L 11.421875 6.691406 L 11.484375 6.875 C 11.546875 6.960938 11.609375 7.058594 11.667969 7.171875 C 11.667969 7.171875 10.734375 6.265625 9.933594 7.085938 C 9.9375 7.085938 10.128906 7.050781 10.40625 7.066406 L 10.316406 6.921875 L 10.492188 7.070312 C 10.585938 7.082031 10.683594 7.09375 10.785156 7.117188 L 10.742188 7.046875 L 10.839844 7.132812 C 10.957031 7.160156 11.074219 7.203125 11.195312 7.261719 L 11.148438 7.164062 L 11.273438 7.300781 C 11.367188 7.351562 11.460938 7.414062 11.550781 7.488281 C 11.550781 7.488281 10.453125 7.398438 10.15625 8.261719 C 10.15625 8.261719 10.324219 8.113281 10.644531 7.996094 L 10.585938 7.953125 L 10.679688 7.984375 C 10.8125 7.941406 10.964844 7.902344 11.140625 7.878906 L 11.066406 7.78125 L 11.195312 7.871094 C 11.386719 7.851562 11.601562 7.851562 11.84375 7.882812 L 12.316406 8.414062 C 12.316406 8.414062 12.378906 8.488281 12.453125 8.625 L 12.558594 8.457031 L 12.496094 8.699219 C 12.527344 8.761719 12.5625 8.835938 12.59375 8.917969 L 12.664062 8.800781 L 12.621094 8.980469 C 12.652344 9.0625 12.679688 9.15625 12.707031 9.257812 L 12.773438 9.148438 L 12.726562 9.335938 C 12.753906 9.46875 12.777344 9.613281 12.789062 9.773438 C 12.789062 9.773438 13.238281 8.890625 12.40625 7.921875 C 12.40625 7.921875 12.574219 7.996094 12.785156 8.207031 L 12.828125 8.050781 L 12.835938 8.261719 C 12.9375 8.371094 13.046875 8.515625 13.148438 8.695312 L 13.1875 8.558594 L 13.195312 8.777344 C 13.320312 9.019531 13.433594 9.324219 13.5 9.699219 C 13.5 9.699219 13.792969 8.558594 12.859375 7.835938 " fill-opacity="1" fill-rule="nonzero"/><g clip-path="url(#0ae6e05aea)"><path fill="#ff0000" d="M 15.382812 14.960938 C 13.796875 14.660156 11.933594 14.484375 9.933594 14.484375 C 7.9375 14.484375 6.070312 14.660156 4.484375 14.960938 C 5.769531 14.386719 7.734375 14.019531 9.933594 14.019531 C 12.132812 14.019531 14.097656 14.386719 15.382812 14.960938 " fill-opacity="1" fill-rule="nonzero"/></g><g fill="#2a4c09" fill-opacity="1"><g transform="translate(3.244266, 14.148413)"><g><path d="M 0.046875 -0.109375 L 0.078125 -0.03125 L 0.15625 0 L 0.5 0 L 0.609375 0.015625 L 0.703125 -0.03125 L 0.765625 -0.109375 L 0.84375 -0.234375 L 0.90625 -0.3125 L 1 -0.359375 L 1.078125 -0.34375 L 1.828125 -0.34375 L 1.953125 -0.3125 L 2.03125 -0.25 L 2.09375 -0.09375 L 2.171875 -0.03125 L 2.265625 0 L 2.34375 0 L 2.484375 0.015625 L 2.734375 0 L 2.796875 -0.03125 L 2.8125 -0.109375 L 2.796875 -0.203125 L 2.765625 -0.28125 L 2.71875 -0.34375 L 2.6875 -0.421875 L 2.65625 -0.484375 L 2.625 -0.5625 L 2.5625 -0.703125 L 2.53125 -0.78125 L 2.484375 -0.84375 L 2.4375 -1 L 2.390625 -1.0625 L 2.359375 -1.140625 L 2.328125 -1.203125 L 2.296875 -1.28125 L 2.265625 -1.34375 L 2.234375 -1.421875 L 2.1875 -1.5 L 2.15625 -1.5625 L 2.125 -1.640625 L 2.09375 -1.703125 L 2.015625 -1.84375 L 2 -1.921875 L 1.921875 -2.078125 L 1.90625 -2.140625 L 1.84375 -2.28125 L 1.765625 -2.421875 L 1.703125 -2.578125 L 1.671875 -2.640625 L 1.640625 -2.71875 L 1.5625 -2.796875 L 1.4375 -2.828125 L 1.3125 -2.78125 L 1.234375 -2.71875 L 1.203125 -2.640625 L 1.03125 -2.28125 L 0.984375 -2.21875 L 0.765625 -1.703125 L 0.75 -1.640625 L 0.703125 -1.5625 L 0.640625 -1.421875 L 0.578125 -1.328125 L 0.546875 -1.25 L 0.5 -1.140625 L 0.46875 -1.0625 L 0.4375 -1 L 0.40625 -0.921875 L 0.296875 -0.703125 L 0.1875 -0.421875 L 0.140625 -0.359375 L 0.09375 -0.28125 Z M 1.28125 -0.984375 L 1.203125 -1.015625 L 1.203125 -1.09375 L 1.359375 -1.453125 L 1.390625 -1.515625 L 1.4375 -1.5625 L 1.484375 -1.53125 L 1.546875 -1.375 L 1.609375 -1.25 L 1.640625 -1.15625 L 1.671875 -1.09375 L 1.65625 -1.015625 L 1.59375 -0.984375 Z M 1.28125 -0.984375 "/></g></g></g><g fill="#2a4c09" fill-opacity="1"><g transform="translate(5.337076, 14.148413)"><g><path d="M 0.96875 -0.078125 L 1.03125 0 L 1.125 0.03125 L 1.28125 0.03125 L 1.359375 -0.015625 L 1.4375 -0.09375 L 1.5 -0.234375 L 1.5625 -0.390625 L 1.59375 -0.453125 L 1.609375 -0.53125 L 1.765625 -0.90625 L 1.78125 -0.96875 L 1.859375 -1.125 L 1.875 -1.203125 L 1.90625 -1.203125 L 1.953125 -1.125 L 1.96875 -1.0625 L 2.015625 -0.984375 L 2.046875 -0.90625 L 2.0625 -0.828125 L 2.125 -0.6875 L 2.15625 -0.609375 L 2.21875 -0.46875 L 2.265625 -0.375 L 2.28125 -0.3125 L 2.296875 -0.234375 L 2.359375 -0.09375 L 2.4375 0 L 2.53125 0.03125 L 2.65625 0.03125 L 2.765625 -0.015625 L 2.828125 -0.078125 L 2.84375 -0.15625 L 2.921875 -0.3125 L 2.953125 -0.46875 L 3.03125 -0.609375 L 3.078125 -0.765625 L 3.109375 -0.828125 L 3.125 -0.90625 L 3.15625 -0.984375 L 3.203125 -1.109375 L 3.28125 -1.296875 L 3.375 -1.578125 L 3.421875 -1.65625 L 3.453125 -1.8125 L 3.5 -1.890625 L 3.515625 -1.96875 L 3.546875 -2.03125 L 3.625 -2.265625 L 3.671875 -2.328125 L 3.765625 -2.671875 L 3.75 -2.765625 L 3.625 -2.796875 L 3.203125 -2.78125 L 3.125 -2.796875 L 3.03125 -2.75 L 2.96875 -2.671875 L 2.953125 -2.59375 L 2.921875 -2.53125 L 2.84375 -2.296875 L 2.8125 -2.21875 L 2.796875 -2.140625 L 2.75 -2.015625 L 2.5625 -1.328125 L 2.53125 -1.34375 L 2.515625 -1.40625 L 2.484375 -1.484375 L 2.46875 -1.546875 L 2.328125 -1.9375 L 2.3125 -2.015625 L 2.265625 -2.09375 L 2.265625 -2.171875 L 2.09375 -2.625 L 2.03125 -2.703125 L 1.921875 -2.75 L 1.859375 -2.75 L 1.765625 -2.703125 L 1.71875 -2.625 L 1.640625 -2.46875 L 1.609375 -2.3125 L 1.5 -2.03125 L 1.46875 -1.9375 L 1.390625 -1.71875 L 1.375 -1.640625 L 1.34375 -1.5625 L 1.296875 -1.484375 L 1.296875 -1.40625 L 1.25 -1.328125 L 1.21875 -1.328125 L 1 -2.203125 L 0.953125 -2.28125 L 0.890625 -2.4375 L 0.84375 -2.671875 L 0.765625 -2.75 L 0.671875 -2.796875 L 0.609375 -2.78125 L 0.359375 -2.796875 L 0.296875 -2.78125 L 0.140625 -2.78125 L 0.0625 -2.75 L 0.03125 -2.65625 L 0.0625 -2.5625 L 0.09375 -2.484375 L 0.140625 -2.328125 L 0.171875 -2.265625 L 0.1875 -2.171875 L 0.234375 -2.109375 L 0.3125 -1.890625 L 0.34375 -1.8125 L 0.359375 -1.734375 L 0.40625 -1.65625 L 0.421875 -1.578125 L 0.515625 -1.359375 L 0.515625 -1.296875 L 0.5625 -1.203125 L 0.578125 -1.125 L 0.875 -0.390625 L 0.90625 -0.234375 Z M 0.96875 -0.078125 "/></g></g></g><g fill="#2a4c09" fill-opacity="1"><g transform="translate(11.132861, 14.148413)"><g><path d="M 0.96875 -0.078125 L 1.03125 0 L 1.125 0.03125 L 1.28125 0.03125 L 1.359375 -0.015625 L 1.4375 -0.09375 L 1.5 -0.234375 L 1.5625 -0.390625 L 1.59375 -0.453125 L 1.609375 -0.53125 L 1.765625 -0.90625 L 1.78125 -0.96875 L 1.859375 -1.125 L 1.875 -1.203125 L 1.90625 -1.203125 L 1.953125 -1.125 L 1.96875 -1.0625 L 2.015625 -0.984375 L 2.046875 -0.90625 L 2.0625 -0.828125 L 2.125 -0.6875 L 2.15625 -0.609375 L 2.21875 -0.46875 L 2.265625 -0.375 L 2.28125 -0.3125 L 2.296875 -0.234375 L 2.359375 -0.09375 L 2.4375 0 L 2.53125 0.03125 L 2.65625 0.03125 L 2.765625 -0.015625 L 2.828125 -0.078125 L 2.84375 -0.15625 L 2.921875 -0.3125 L 2.953125 -0.46875 L 3.03125 -0.609375 L 3.078125 -0.765625 L 3.109375 -0.828125 L 3.125 -0.90625 L 3.15625 -0.984375 L 3.203125 -1.109375 L 3.28125 -1.296875 L 3.375 -1.578125 L 3.421875 -1.65625 L 3.453125 -1.8125 L 3.5 -1.890625 L 3.515625 -1.96875 L 3.546875 -2.03125 L 3.625 -2.265625 L 3.671875 -2.328125 L 3.765625 -2.671875 L 3.75 -2.765625 L 3.625 -2.796875 L 3.203125 -2.78125 L 3.125 -2.796875 L 3.03125 -2.75 L 2.96875 -2.671875 L 2.953125 -2.59375 L 2.921875 -2.53125 L 2.84375 -2.296875 L 2.8125 -2.21875 L 2.796875 -2.140625 L 2.75 -2.015625 L 2.5625 -1.328125 L 2.53125 -1.34375 L 2.515625 -1.40625 L 2.484375 -1.484375 L 2.46875 -1.546875 L 2.328125 -1.9375 L 2.3125 -2.015625 L 2.265625 -2.09375 L 2.265625 -2.171875 L 2.09375 -2.625 L 2.03125 -2.703125 L 1.921875 -2.75 L 1.859375 -2.75 L 1.765625 -2.703125 L 1.71875 -2.625 L 1.640625 -2.46875 L 1.609375 -2.3125 L 1.5 -2.03125 L 1.46875 -1.9375 L 1.390625 -1.71875 L 1.375 -1.640625 L 1.34375 -1.5625 L 1.296875 -1.484375 L 1.296875 -1.40625 L 1.25 -1.328125 L 1.21875 -1.328125 L 1 -2.203125 L 0.953125 -2.28125 L 0.890625 -2.4375 L 0.84375 -2.671875 L 0.765625 -2.75 L 0.671875 -2.796875 L 0.609375 -2.78125 L 0.359375 -2.796875 L 0.296875 -2.78125 L 0.140625 -2.78125 L 0.0625 -2.75 L 0.03125 -2.65625 L 0.0625 -2.5625 L 0.09375 -2.484375 L 0.140625 -2.328125 L 0.171875 -2.265625 L 0.1875 -2.171875 L 0.234375 -2.109375 L 0.3125 -1.890625 L 0.34375 -1.8125 L 0.359375 -1.734375 L 0.40625 -1.65625 L 0.421875 -1.578125 L 0.515625 -1.359375 L 0.515625 -1.296875 L 0.5625 -1.203125 L 0.578125 -1.125 L 0.875 -0.390625 L 0.90625 -0.234375 Z M 0.96875 -0.078125 "/></g></g></g><g fill="#2a4c09" fill-opacity="1"><g transform="translate(14.626457, 14.148413)"><g><path d="M 0.1875 -0.109375 L 0.234375 -0.03125 L 0.3125 0 L 1.5 0 L 1.5625 -0.03125 L 1.609375 -0.109375 L 1.609375 -0.265625 L 1.625 -0.515625 L 1.5625 -0.578125 L 1.296875 -0.65625 L 1.25 -0.734375 L 1.265625 -1.0625 L 1.25 -1.234375 L 1.265625 -1.390625 L 1.25 -1.515625 L 1.265625 -1.640625 L 1.25 -1.71875 L 1.265625 -1.796875 L 1.25 -1.875 L 1.25 -2.046875 L 1.296875 -2.109375 L 1.375 -2.15625 L 1.453125 -2.15625 L 1.53125 -2.203125 L 1.578125 -2.28125 L 1.578125 -2.671875 L 1.546875 -2.75 L 1.421875 -2.78125 L 0.90625 -2.796875 L 0.828125 -2.78125 L 0.5 -2.78125 L 0.34375 -2.796875 L 0.265625 -2.75 L 0.21875 -2.671875 L 0.21875 -2.28125 L 0.265625 -2.203125 L 0.5 -2.125 L 0.546875 -2.046875 L 0.546875 -1.640625 L 0.5625 -1.546875 L 0.546875 -1.390625 L 0.546875 -1.3125 L 0.5625 -1.15625 L 0.546875 -1.078125 L 0.5625 -0.90625 L 0.546875 -0.75 L 0.515625 -0.65625 L 0.25 -0.578125 L 0.203125 -0.5 L 0.1875 -0.421875 Z M 0.1875 -0.109375 "/></g></g></g><g fill="#2a4c09" fill-opacity="1"><g transform="translate(16.130487, 14.148413)"><g><path d="M 0.09375 -0.125 L 0.125 -0.03125 L 0.203125 0 L 2.203125 0 L 2.28125 -0.046875 L 2.328125 -0.125 L 2.3125 -0.203125 L 2.328125 -0.28125 L 2.3125 -0.359375 L 2.3125 -0.515625 L 2.28125 -0.59375 L 2.1875 -0.640625 L 1.34375 -0.640625 L 1.234375 -0.671875 L 1.21875 -0.734375 L 1.59375 -1.375 L 1.609375 -1.453125 L 1.703125 -1.578125 L 1.765625 -1.71875 L 2.28125 -2.671875 L 2.265625 -2.765625 L 2.1875 -2.796875 L 1.796875 -2.78125 L 1.71875 -2.796875 L 0.34375 -2.78125 L 0.234375 -2.75 L 0.171875 -2.671875 L 0.1875 -2.59375 L 0.1875 -2.5 L 0.203125 -2.4375 L 0.1875 -2.265625 L 0.234375 -2.1875 L 0.3125 -2.15625 L 0.375 -2.15625 L 0.46875 -2.140625 L 0.71875 -2.140625 L 0.859375 -2.15625 L 0.921875 -2.140625 L 1.0625 -2.140625 L 1.15625 -2.125 L 1.15625 -2.046875 L 1.109375 -1.96875 L 1 -1.765625 L 0.890625 -1.59375 L 0.8125 -1.40625 L 0.71875 -1.28125 L 0.6875 -1.203125 L 0.640625 -1.125 L 0.625 -1.0625 L 0.53125 -0.90625 L 0.1875 -0.28125 L 0.140625 -0.21875 Z M 0.09375 -0.125 "/></g></g></g><g fill="#000000" fill-opacity="1"><g transform="translate(1.241877, 14.077408)"><g><path d="M -0.015625 -0.03125 L 0.234375 0.28125 C 0.28125 0.25 0.34375 0.234375 0.46875 0.203125 L 0.578125 0.171875 L 1.09375 0.765625 L 1.046875 0.890625 C 0.984375 1 0.953125 1.046875 0.9375 1.09375 L 1.1875 1.390625 C 1.203125 1.296875 1.25 1.15625 1.296875 1.015625 L 1.609375 0.28125 C 1.640625 0.15625 1.734375 0.03125 1.78125 -0.015625 L 1.46875 -0.390625 C 1.40625 -0.359375 1.28125 -0.296875 1.15625 -0.25 L 0.359375 -0.09375 C 0.234375 -0.046875 0.078125 -0.015625 -0.015625 -0.03125 Z M 0.828125 0.109375 L 1.203125 0.015625 C 1.296875 0 1.359375 -0.015625 1.4375 -0.0625 L 1.453125 -0.046875 C 1.40625 0.046875 1.359375 0.078125 1.328125 0.171875 L 1.1875 0.53125 Z M 0.828125 0.109375 "/></g></g></g><g fill="#000000" fill-opacity="1"><g transform="translate(2.766497, 15.800274)"><g><path d="M 0.125 0.09375 L 0.75 0.59375 C 1.125 0.890625 1.546875 0.890625 1.796875 0.5625 C 2.078125 0.21875 1.984375 -0.1875 1.609375 -0.484375 L 0.984375 -0.984375 C 0.953125 -0.90625 0.890625 -0.8125 0.8125 -0.703125 L 0.359375 -0.125 C 0.28125 -0.03125 0.1875 0.046875 0.125 0.09375 Z M 0.5625 0.109375 L 1.078125 -0.5625 L 1.421875 -0.296875 C 1.65625 -0.109375 1.71875 0.140625 1.546875 0.359375 C 1.390625 0.5625 1.140625 0.5625 0.90625 0.375 Z M 0.5625 0.109375 "/></g></g></g><g fill="#000000" fill-opacity="1"><g transform="translate(4.638667, 17.215649)"><g><path d="M 0.578125 0.296875 L 1 0.515625 C 1.046875 0.453125 1.140625 0.34375 1.25 0.265625 L 1.921875 -0.203125 C 2.03125 -0.296875 2.140625 -0.359375 2.203125 -0.40625 L 1.875 -0.578125 C 1.859375 -0.546875 1.78125 -0.484375 1.734375 -0.421875 L 1.109375 0.015625 C 1.03125 0.078125 0.984375 0.109375 0.9375 0.171875 L 0.921875 0.171875 C 0.921875 0.078125 0.921875 0.015625 0.921875 -0.078125 L 0.9375 -0.828125 C 0.921875 -0.921875 0.953125 -1.015625 0.96875 -1.046875 L 0.625 -1.21875 C 0.640625 -1.140625 0.640625 -1.015625 0.640625 -0.859375 L 0.640625 -0.046875 C 0.625 0.078125 0.609375 0.21875 0.578125 0.296875 Z M 0.578125 0.296875 "/></g></g></g><g fill="#000000" fill-opacity="1"><g transform="translate(6.69734, 18.211055)"><g><path d="M 0.15625 0.046875 L 1.484375 0.4375 L 1.640625 0.15625 C 1.5625 0.171875 1.46875 0.15625 1.328125 0.109375 L 0.5625 -0.109375 L 0.640625 -0.40625 L 1.25 -0.234375 C 1.34375 -0.203125 1.40625 -0.1875 1.453125 -0.15625 L 1.53125 -0.421875 C 1.484375 -0.4375 1.421875 -0.4375 1.328125 -0.46875 L 0.71875 -0.640625 L 0.796875 -0.921875 L 1.5625 -0.703125 C 1.671875 -0.671875 1.765625 -0.640625 1.796875 -0.59375 L 1.84375 -0.890625 L 0.546875 -1.265625 C 0.546875 -1.203125 0.515625 -1.078125 0.484375 -0.9375 L 0.28125 -0.25 C 0.25 -0.125 0.203125 -0.03125 0.15625 0.046875 Z M 0.15625 0.046875 "/></g></g></g><g fill="#000000" fill-opacity="1"><g transform="translate(8.8129, 18.789043)"><g><path d="M 0.15625 0.015625 L 0.53125 0.046875 C 0.515625 -0.015625 0.515625 -0.171875 0.53125 -0.3125 L 0.578125 -0.953125 L 0.609375 -0.953125 L 1.484375 0.125 L 1.765625 0.15625 L 1.859375 -0.890625 C 1.875 -1.03125 1.890625 -1.140625 1.921875 -1.21875 L 1.546875 -1.25 C 1.546875 -1.1875 1.5625 -1.0625 1.546875 -0.921875 L 1.484375 -0.28125 L 1.46875 -0.28125 L 0.640625 -1.328125 L 0.28125 -1.359375 C 0.296875 -1.28125 0.3125 -1.171875 0.296875 -1.03125 L 0.234375 -0.3125 C 0.21875 -0.1875 0.1875 -0.0625 0.15625 0.015625 Z M 0.15625 0.015625 "/></g></g></g><g fill="#000000" fill-opacity="1"><g transform="translate(11.267454, 18.934954)"><g><path d="M 0.609375 -0.0625 L 1 -0.109375 C 0.953125 -0.1875 0.9375 -0.3125 0.921875 -0.4375 L 0.828125 -1.21875 L 1.171875 -1.25 C 1.28125 -1.265625 1.359375 -1.25 1.4375 -1.25 L 1.34375 -1.515625 L -0.03125 -1.375 L -0.0625 -1.078125 C -0.015625 -1.109375 0.0625 -1.125 0.1875 -1.140625 L 0.53125 -1.1875 L 0.625 -0.40625 C 0.640625 -0.28125 0.625 -0.140625 0.609375 -0.0625 Z M 0.609375 -0.0625 "/></g></g></g><g fill="#000000" fill-opacity="1"><g transform="translate(13.357383, 18.673177)"><g><path d="M 0.890625 -0.234375 C 1.34375 -0.375 1.53125 -0.671875 1.421875 -1.0625 L 1.28125 -1.484375 C 1.25 -1.625 1.21875 -1.71875 1.21875 -1.8125 L 0.859375 -1.703125 C 0.90625 -1.625 0.953125 -1.515625 0.984375 -1.390625 L 1.109375 -1 C 1.1875 -0.765625 1.078125 -0.5625 0.8125 -0.484375 C 0.578125 -0.421875 0.359375 -0.515625 0.28125 -0.75 L 0.15625 -1.140625 C 0.125 -1.265625 0.109375 -1.375 0.109375 -1.46875 L -0.265625 -1.359375 C -0.203125 -1.28125 -0.171875 -1.203125 -0.140625 -1.0625 L 0 -0.640625 C 0.109375 -0.25 0.46875 -0.109375 0.890625 -0.234375 Z M 0.890625 -0.234375 "/></g></g></g><g fill="#000000" fill-opacity="1"><g transform="translate(15.591925, 17.937613)"><g><path d="M 1.40625 -0.71875 C 1.5 -0.765625 1.5625 -0.859375 1.578125 -0.9375 L 1.40625 -1.21875 C 1.40625 -1.125 1.390625 -1.078125 1.28125 -1.015625 C 1.09375 -0.921875 0.984375 -1.234375 0.609375 -1.03125 L 0.59375 -1.03125 L 0.578125 -1.046875 L 0.6875 -1.109375 C 0.96875 -1.25 1.09375 -1.5 0.984375 -1.6875 C 0.875 -1.890625 0.609375 -1.890625 0.3125 -1.734375 L -0.515625 -1.28125 C -0.4375 -1.234375 -0.390625 -1.140625 -0.328125 -1.015625 L 0.015625 -0.375 C 0.078125 -0.265625 0.140625 -0.15625 0.140625 -0.078125 L 0.484375 -0.265625 C 0.421875 -0.3125 0.34375 -0.40625 0.28125 -0.515625 L 0.1875 -0.6875 C 0.234375 -0.734375 0.359375 -0.8125 0.40625 -0.84375 C 0.90625 -1.109375 0.953125 -0.46875 1.40625 -0.71875 Z M 0.078125 -0.90625 L -0.09375 -1.203125 L 0.421875 -1.484375 C 0.5625 -1.5625 0.703125 -1.5625 0.75 -1.46875 C 0.8125 -1.375 0.734375 -1.265625 0.578125 -1.171875 Z M 0.078125 -0.90625 "/></g></g></g><g fill="#000000" fill-opacity="1"><g transform="translate(17.627353, 16.773737)"><g><path d="M 0.125 -0.09375 L 1.1875 -0.984375 L 1.046875 -1.25 C 1.015625 -1.203125 0.953125 -1.125 0.828125 -1.03125 L 0.21875 -0.515625 L 0.03125 -0.75 L 0.515625 -1.15625 C 0.59375 -1.21875 0.640625 -1.265625 0.6875 -1.28125 L 0.5 -1.5 C 0.46875 -1.46875 0.4375 -1.40625 0.359375 -1.34375 L -0.125 -0.9375 L -0.3125 -1.171875 L 0.296875 -1.6875 C 0.390625 -1.765625 0.46875 -1.828125 0.515625 -1.828125 L 0.296875 -2.03125 L -0.75 -1.15625 C -0.6875 -1.125 -0.59375 -1.046875 -0.515625 -0.9375 L -0.046875 -0.375 C 0.03125 -0.28125 0.09375 -0.1875 0.125 -0.09375 Z M 0.125 -0.09375 "/></g></g></g><g fill="#000000" fill-opacity="1"><g transform="translate(19.285906, 15.349814)"><g><path d="M 0.578125 -0.640625 C 0.859375 -0.984375 0.9375 -1.296875 0.734375 -1.46875 C 0.296875 -1.828125 -0.265625 -0.78125 -0.5 -0.96875 C -0.578125 -1.046875 -0.484375 -1.203125 -0.328125 -1.375 C -0.1875 -1.546875 0 -1.703125 0.171875 -1.75 L -0.0625 -1.9375 C -0.21875 -1.875 -0.40625 -1.703125 -0.546875 -1.546875 C -0.8125 -1.234375 -0.90625 -0.890625 -0.703125 -0.71875 C -0.265625 -0.359375 0.28125 -1.40625 0.515625 -1.21875 C 0.609375 -1.140625 0.53125 -1 0.375 -0.796875 C 0.1875 -0.59375 -0.046875 -0.421875 -0.265625 -0.34375 L -0.03125 -0.140625 C 0.15625 -0.234375 0.421875 -0.453125 0.578125 -0.640625 Z M 0.578125 -0.640625 "/></g></g></g><g fill="#000000" fill-opacity="1"><g transform="translate(22.92891, 11.046344)"><g><path d="M 2.375 0.015625 L 2.515625 0 L 2.71875 0 L 2.828125 -0.015625 L 2.84375 -0.109375 L 2.8125 -0.203125 L 2.765625 -0.359375 L 2.65625 -0.5625 L 2.59375 -0.71875 L 2.515625 -0.859375 L 2.359375 -1.21875 L 2.328125 -1.28125 L 2.28125 -1.359375 L 2.25 -1.453125 L 2.21875 -1.515625 L 2.203125 -1.578125 L 2.109375 -1.71875 L 2.078125 -1.8125 L 1.8125 -2.359375 L 1.796875 -2.453125 L 1.75 -2.515625 L 1.734375 -2.59375 L 1.65625 -2.734375 L 1.578125 -2.796875 L 1.453125 -2.84375 L 1.328125 -2.796875 L 1.25 -2.734375 L 1.1875 -2.578125 L 1.15625 -2.53125 L 0.984375 -2.15625 L 0.9375 -2.09375 L 0.921875 -2.015625 L 0.875 -1.9375 L 0.859375 -1.875 L 0.453125 -1.015625 L 0.421875 -0.921875 L 0.375 -0.859375 L 0.359375 -0.78125 L 0.28125 -0.65625 L 0.21875 -0.484375 L 0.171875 -0.4375 L 0.15625 -0.359375 L 0.078125 -0.203125 L 0.046875 -0.125 L 0.078125 -0.015625 L 0.15625 0 L 0.609375 0 L 0.703125 -0.03125 L 0.78125 -0.109375 L 0.859375 -0.234375 L 0.9375 -0.3125 L 1.015625 -0.359375 L 1.09375 -0.34375 L 1.265625 -0.359375 L 1.328125 -0.34375 L 1.734375 -0.359375 L 1.796875 -0.34375 L 1.890625 -0.359375 L 1.96875 -0.3125 L 2.046875 -0.25 L 2.09375 -0.171875 L 2.109375 -0.09375 L 2.1875 -0.046875 L 2.28125 0 Z M 1.453125 -0.984375 L 1.375 -1.015625 L 1.28125 -1 L 1.21875 -1.03125 L 1.21875 -1.109375 L 1.40625 -1.53125 L 1.453125 -1.578125 L 1.5 -1.546875 L 1.6875 -1.09375 L 1.671875 -1.03125 L 1.625 -1 Z M 1.453125 -0.984375 "/></g></g></g><g fill="#000000" fill-opacity="1"><g transform="translate(25.848413, 11.046344)"><g><path d="M 0.984375 -0.078125 L 1.046875 0 L 1.125 0.03125 L 1.28125 0.03125 L 1.375 -0.015625 L 1.4375 -0.09375 L 1.515625 -0.234375 L 1.5625 -0.390625 L 1.609375 -0.453125 L 1.625 -0.53125 L 1.78125 -0.921875 L 1.796875 -0.984375 L 1.875 -1.140625 L 1.890625 -1.21875 L 1.921875 -1.21875 L 1.96875 -1.140625 L 1.984375 -1.0625 L 2.03125 -0.984375 L 2.0625 -0.921875 L 2.078125 -0.828125 L 2.140625 -0.6875 L 2.171875 -0.609375 L 2.234375 -0.46875 L 2.28125 -0.390625 L 2.3125 -0.3125 L 2.328125 -0.234375 L 2.375 -0.09375 L 2.453125 0 L 2.546875 0.03125 L 2.6875 0.03125 L 2.78125 -0.015625 L 2.84375 -0.078125 L 2.9375 -0.3125 L 2.984375 -0.46875 L 3.046875 -0.609375 L 3.09375 -0.765625 L 3.140625 -0.84375 L 3.15625 -0.921875 L 3.1875 -1 L 3.21875 -1.109375 L 3.3125 -1.296875 L 3.40625 -1.59375 L 3.453125 -1.671875 L 3.484375 -1.828125 L 3.515625 -1.90625 L 3.53125 -1.984375 L 3.578125 -2.046875 L 3.65625 -2.28125 L 3.6875 -2.34375 L 3.796875 -2.6875 L 3.78125 -2.78125 L 3.65625 -2.8125 L 3.140625 -2.8125 L 3.0625 -2.765625 L 3 -2.6875 L 2.96875 -2.609375 L 2.9375 -2.546875 L 2.875 -2.3125 L 2.828125 -2.234375 L 2.8125 -2.15625 L 2.765625 -2.03125 L 2.59375 -1.34375 L 2.546875 -1.34375 L 2.546875 -1.421875 L 2.5 -1.484375 L 2.484375 -1.5625 L 2.34375 -1.953125 L 2.328125 -2.03125 L 2.28125 -2.109375 L 2.28125 -2.1875 L 2.109375 -2.65625 L 2.046875 -2.734375 L 1.9375 -2.765625 L 1.875 -2.765625 L 1.78125 -2.734375 L 1.65625 -2.484375 L 1.625 -2.328125 L 1.515625 -2.046875 L 1.484375 -1.953125 L 1.390625 -1.734375 L 1.390625 -1.65625 L 1.359375 -1.578125 L 1.3125 -1.484375 L 1.296875 -1.421875 L 1.25 -1.34375 L 1.234375 -1.34375 L 1 -2.21875 L 0.90625 -2.453125 L 0.890625 -2.546875 L 0.859375 -2.609375 L 0.84375 -2.6875 L 0.78125 -2.765625 L 0.671875 -2.8125 L 0.359375 -2.8125 L 0.296875 -2.796875 L 0.140625 -2.796875 L 0.0625 -2.78125 L 0.03125 -2.6875 L 0.0625 -2.578125 L 0.09375 -2.5 L 0.140625 -2.359375 L 0.234375 -2.125 L 0.3125 -1.90625 L 0.40625 -1.671875 L 0.421875 -1.59375 L 0.515625 -1.375 L 0.53125 -1.296875 L 0.5625 -1.21875 L 0.578125 -1.140625 L 0.875 -0.390625 L 0.921875 -0.234375 Z M 0.984375 -0.078125 "/></g></g></g><g fill="#000000" fill-opacity="1"><g transform="translate(29.684785, 11.046344)"><g><path d="M 0.1875 -0.109375 L 0.234375 -0.03125 L 0.3125 0 L 1.5 0 L 1.578125 -0.03125 L 1.625 -0.109375 L 1.625 -0.515625 L 1.578125 -0.578125 L 1.3125 -0.671875 L 1.265625 -0.75 L 1.265625 -1.078125 L 1.25 -1.234375 L 1.265625 -1.40625 L 1.265625 -2.0625 L 1.3125 -2.125 L 1.375 -2.171875 L 1.46875 -2.1875 L 1.546875 -2.21875 L 1.59375 -2.296875 L 1.59375 -2.6875 L 1.5625 -2.765625 L 1.421875 -2.8125 L 0.921875 -2.8125 L 0.828125 -2.796875 L 0.59375 -2.8125 L 0.515625 -2.796875 L 0.359375 -2.8125 L 0.265625 -2.765625 L 0.21875 -2.6875 L 0.21875 -2.296875 L 0.265625 -2.21875 L 0.5 -2.140625 L 0.5625 -2.0625 L 0.546875 -1.71875 L 0.546875 -1.65625 L 0.5625 -1.5625 L 0.5625 -1.390625 L 0.546875 -1.3125 L 0.5625 -1.15625 L 0.546875 -1.078125 L 0.5625 -0.90625 L 0.546875 -0.75 L 0.515625 -0.65625 L 0.25 -0.578125 L 0.203125 -0.5 L 0.1875 -0.421875 Z M 0.1875 -0.109375 "/></g></g></g><g fill="#000000" fill-opacity="1"><g transform="translate(31.510478, 11.046344)"><g><path d="M 0.984375 -0.078125 L 1.046875 0 L 1.125 0.03125 L 1.28125 0.03125 L 1.375 -0.015625 L 1.4375 -0.09375 L 1.515625 -0.234375 L 1.5625 -0.390625 L 1.609375 -0.453125 L 1.625 -0.53125 L 1.78125 -0.921875 L 1.796875 -0.984375 L 1.875 -1.140625 L 1.890625 -1.21875 L 1.921875 -1.21875 L 1.96875 -1.140625 L 1.984375 -1.0625 L 2.03125 -0.984375 L 2.0625 -0.921875 L 2.078125 -0.828125 L 2.140625 -0.6875 L 2.171875 -0.609375 L 2.234375 -0.46875 L 2.28125 -0.390625 L 2.3125 -0.3125 L 2.328125 -0.234375 L 2.375 -0.09375 L 2.453125 0 L 2.546875 0.03125 L 2.6875 0.03125 L 2.78125 -0.015625 L 2.84375 -0.078125 L 2.9375 -0.3125 L 2.984375 -0.46875 L 3.046875 -0.609375 L 3.09375 -0.765625 L 3.140625 -0.84375 L 3.15625 -0.921875 L 3.1875 -1 L 3.21875 -1.109375 L 3.3125 -1.296875 L 3.40625 -1.59375 L 3.453125 -1.671875 L 3.484375 -1.828125 L 3.515625 -1.90625 L 3.53125 -1.984375 L 3.578125 -2.046875 L 3.65625 -2.28125 L 3.6875 -2.34375 L 3.796875 -2.6875 L 3.78125 -2.78125 L 3.65625 -2.8125 L 3.140625 -2.8125 L 3.0625 -2.765625 L 3 -2.6875 L 2.96875 -2.609375 L 2.9375 -2.546875 L 2.875 -2.3125 L 2.828125 -2.234375 L 2.8125 -2.15625 L 2.765625 -2.03125 L 2.59375 -1.34375 L 2.546875 -1.34375 L 2.546875 -1.421875 L 2.5 -1.484375 L 2.484375 -1.5625 L 2.34375 -1.953125 L 2.328125 -2.03125 L 2.28125 -2.109375 L 2.28125 -2.1875 L 2.109375 -2.65625 L 2.046875 -2.734375 L 1.9375 -2.765625 L 1.875 -2.765625 L 1.78125 -2.734375 L 1.65625 -2.484375 L 1.625 -2.328125 L 1.515625 -2.046875 L 1.484375 -1.953125 L 1.390625 -1.734375 L 1.390625 -1.65625 L 1.359375 -1.578125 L 1.3125 -1.484375 L 1.296875 -1.421875 L 1.25 -1.34375 L 1.234375 -1.34375 L 1 -2.21875 L 0.90625 -2.453125 L 0.890625 -2.546875 L 0.859375 -2.609375 L 0.84375 -2.6875 L 0.78125 -2.765625 L 0.671875 -2.8125 L 0.359375 -2.8125 L 0.296875 -2.796875 L 0.140625 -2.796875 L 0.0625 -2.78125 L 0.03125 -2.6875 L 0.0625 -2.578125 L 0.09375 -2.5 L 0.140625 -2.359375 L 0.234375 -2.125 L 0.3125 -1.90625 L 0.40625 -1.671875 L 0.421875 -1.59375 L 0.515625 -1.375 L 0.53125 -1.296875 L 0.5625 -1.21875 L 0.578125 -1.140625 L 0.875 -0.390625 L 0.921875 -0.234375 Z M 0.984375 -0.078125 "/></g></g></g><g fill="#000000" fill-opacity="1"><g transform="translate(35.346851, 11.046344)"><g><path d="M 0.1875 -0.109375 L 0.234375 -0.03125 L 0.3125 0 L 1.5 0 L 1.578125 -0.03125 L 1.625 -0.109375 L 1.625 -0.515625 L 1.578125 -0.578125 L 1.3125 -0.671875 L 1.265625 -0.75 L 1.265625 -1.078125 L 1.25 -1.234375 L 1.265625 -1.40625 L 1.265625 -2.0625 L 1.3125 -2.125 L 1.375 -2.171875 L 1.46875 -2.1875 L 1.546875 -2.21875 L 1.59375 -2.296875 L 1.59375 -2.6875 L 1.5625 -2.765625 L 1.421875 -2.8125 L 0.921875 -2.8125 L 0.828125 -2.796875 L 0.59375 -2.8125 L 0.515625 -2.796875 L 0.359375 -2.8125 L 0.265625 -2.765625 L 0.21875 -2.6875 L 0.21875 -2.296875 L 0.265625 -2.21875 L 0.5 -2.140625 L 0.5625 -2.0625 L 0.546875 -1.71875 L 0.546875 -1.65625 L 0.5625 -1.5625 L 0.5625 -1.390625 L 0.546875 -1.3125 L 0.5625 -1.15625 L 0.546875 -1.078125 L 0.5625 -0.90625 L 0.546875 -0.75 L 0.515625 -0.65625 L 0.25 -0.578125 L 0.203125 -0.5 L 0.1875 -0.421875 Z M 0.1875 -0.109375 "/></g></g></g><g fill="#000000" fill-opacity="1"><g transform="translate(37.172544, 11.046344)"><g><path d="M 0.09375 -0.125 L 0.125 -0.03125 L 0.203125 0 L 2.21875 0 L 2.296875 -0.046875 L 2.34375 -0.125 L 2.328125 -0.203125 L 2.34375 -0.28125 L 2.328125 -0.359375 L 2.34375 -0.4375 L 2.328125 -0.53125 L 2.296875 -0.59375 L 2.203125 -0.640625 L 1.359375 -0.640625 L 1.234375 -0.671875 L 1.234375 -0.75 L 1.609375 -1.390625 L 1.625 -1.46875 L 1.71875 -1.59375 L 1.78125 -1.734375 L 2.296875 -2.6875 L 2.28125 -2.78125 L 2.203125 -2.8125 L 0.34375 -2.8125 L 0.234375 -2.765625 L 0.1875 -2.6875 L 0.203125 -2.609375 L 0.1875 -2.53125 L 0.203125 -2.453125 L 0.1875 -2.28125 L 0.234375 -2.203125 L 0.3125 -2.171875 L 0.46875 -2.171875 L 0.71875 -2.15625 L 0.859375 -2.171875 L 0.9375 -2.15625 L 1.078125 -2.171875 L 1.171875 -2.140625 L 1.171875 -2.0625 L 1.125 -1.984375 L 1.015625 -1.78125 L 0.90625 -1.609375 L 0.828125 -1.421875 L 0.734375 -1.28125 L 0.6875 -1.21875 L 0.65625 -1.140625 L 0.625 -1.078125 L 0.578125 -1 L 0.546875 -0.921875 L 0.1875 -0.296875 L 0.140625 -0.21875 Z M 0.09375 -0.125 "/></g></g></g><g fill="#000000" fill-opacity="1"><g transform="translate(39.653719, 11.046344)"><g/></g></g><g fill="#000000" fill-opacity="1"><g transform="translate(40.743506, 11.046344)"><g><path d="M 2.375 0.015625 L 2.515625 0 L 2.71875 0 L 2.828125 -0.015625 L 2.84375 -0.109375 L 2.8125 -0.203125 L 2.765625 -0.359375 L 2.65625 -0.5625 L 2.59375 -0.71875 L 2.515625 -0.859375 L 2.359375 -1.21875 L 2.328125 -1.28125 L 2.28125 -1.359375 L 2.25 -1.453125 L 2.21875 -1.515625 L 2.203125 -1.578125 L 2.109375 -1.71875 L 2.078125 -1.8125 L 1.8125 -2.359375 L 1.796875 -2.453125 L 1.75 -2.515625 L 1.734375 -2.59375 L 1.65625 -2.734375 L 1.578125 -2.796875 L 1.453125 -2.84375 L 1.328125 -2.796875 L 1.25 -2.734375 L 1.1875 -2.578125 L 1.15625 -2.53125 L 0.984375 -2.15625 L 0.9375 -2.09375 L 0.921875 -2.015625 L 0.875 -1.9375 L 0.859375 -1.875 L 0.453125 -1.015625 L 0.421875 -0.921875 L 0.375 -0.859375 L 0.359375 -0.78125 L 0.28125 -0.65625 L 0.21875 -0.484375 L 0.171875 -0.4375 L 0.15625 -0.359375 L 0.078125 -0.203125 L 0.046875 -0.125 L 0.078125 -0.015625 L 0.15625 0 L 0.609375 0 L 0.703125 -0.03125 L 0.78125 -0.109375 L 0.859375 -0.234375 L 0.9375 -0.3125 L 1.015625 -0.359375 L 1.09375 -0.34375 L 1.265625 -0.359375 L 1.328125 -0.34375 L 1.734375 -0.359375 L 1.796875 -0.34375 L 1.890625 -0.359375 L 1.96875 -0.3125 L 2.046875 -0.25 L 2.09375 -0.171875 L 2.109375 -0.09375 L 2.1875 -0.046875 L 2.28125 0 Z M 1.453125 -0.984375 L 1.375 -1.015625 L 1.28125 -1 L 1.21875 -1.03125 L 1.21875 -1.109375 L 1.40625 -1.53125 L 1.453125 -1.578125 L 1.5 -1.546875 L 1.6875 -1.09375 L 1.671875 -1.03125 L 1.625 -1 Z M 1.453125 -0.984375 "/></g></g></g><g fill="#000000" fill-opacity="1"><g transform="translate(43.663009, 11.046344)"><g><path d="M 0.296875 -0.125 L 0.34375 -0.03125 L 0.40625 0 L 0.5 0 L 0.59375 0.015625 L 0.671875 0.015625 L 0.75 0 L 1.484375 0 L 1.734375 -0.046875 L 1.96875 -0.109375 L 2.3125 -0.34375 L 2.46875 -0.53125 L 2.59375 -0.734375 L 2.609375 -0.796875 L 2.65625 -0.875 L 2.671875 -0.953125 L 2.703125 -1.03125 L 2.703125 -1.109375 L 2.734375 -1.203125 L 2.734375 -1.265625 L 2.75 -1.53125 L 2.6875 -1.75 L 2.671875 -1.84375 L 2.65625 -1.90625 L 2.59375 -2.078125 L 2.5 -2.203125 L 2.46875 -2.28125 L 2.359375 -2.40625 L 2.296875 -2.453125 L 2.1875 -2.5625 L 2.03125 -2.65625 L 1.953125 -2.6875 L 1.734375 -2.765625 L 1.5625 -2.796875 L 1 -2.796875 L 0.921875 -2.8125 L 0.65625 -2.796875 L 0.578125 -2.8125 L 0.421875 -2.8125 L 0.359375 -2.765625 L 0.296875 -2.6875 L 0.296875 -2.359375 L 0.3125 -2.21875 L 0.296875 -2.125 L 0.3125 -2.046875 L 0.296875 -1.96875 L 0.3125 -1.640625 L 0.296875 -1.484375 L 0.3125 -1.3125 L 0.296875 -1.234375 L 0.3125 -1.15625 L 0.296875 -1 L 0.3125 -0.671875 L 0.296875 -0.59375 L 0.3125 -0.28125 Z M 1.15625 -0.640625 L 1.0625 -0.6875 L 1.015625 -0.765625 L 1.03125 -0.84375 L 1.015625 -0.921875 L 1.03125 -1 L 1.03125 -2.03125 L 1.078125 -2.109375 L 1.1875 -2.15625 L 1.265625 -2.140625 L 1.359375 -2.15625 L 1.484375 -2.140625 L 1.640625 -2.09375 L 1.78125 -2.015625 L 1.875 -1.890625 L 1.921875 -1.8125 L 1.96875 -1.75 L 2.015625 -1.515625 L 2.03125 -1.390625 L 2.015625 -1.203125 L 1.921875 -0.96875 L 1.78125 -0.78125 L 1.703125 -0.75 L 1.625 -0.703125 L 1.484375 -0.65625 Z M 1.15625 -0.640625 "/></g></g></g><g fill="#000000" fill-opacity="1"><g transform="translate(46.586533, 11.046344)"><g><path d="M 1.125 -0.078125 L 1.203125 0 L 1.296875 0.03125 L 1.375 0.046875 L 1.484375 0 L 1.546875 -0.0625 L 1.671875 -0.375 L 1.71875 -0.453125 L 1.78125 -0.59375 L 1.8125 -0.65625 L 2.046875 -1.171875 L 2.09375 -1.328125 L 2.1875 -1.484375 L 2.21875 -1.625 L 2.265625 -1.703125 L 2.28125 -1.78125 L 2.3125 -1.859375 L 2.359375 -1.921875 L 2.390625 -2 L 2.4375 -2.0625 L 2.5 -2.21875 L 2.515625 -2.296875 L 2.5625 -2.359375 L 2.625 -2.515625 L 2.640625 -2.59375 L 2.6875 -2.6875 L 2.65625 -2.78125 L 2.59375 -2.8125 L 2.125 -2.8125 L 2.03125 -2.78125 L 1.953125 -2.703125 L 1.9375 -2.625 L 1.453125 -1.453125 L 1.390625 -1.296875 L 1.34375 -1.234375 L 1.296875 -1.21875 L 1.265625 -1.296875 L 1.21875 -1.453125 L 1.1875 -1.515625 L 1.15625 -1.59375 L 1.125 -1.65625 L 1.09375 -1.734375 L 1.046875 -1.890625 L 1 -1.953125 L 0.96875 -2.03125 L 0.953125 -2.109375 L 0.8125 -2.40625 L 0.8125 -2.484375 L 0.765625 -2.546875 L 0.734375 -2.625 L 0.703125 -2.6875 L 0.640625 -2.765625 L 0.546875 -2.796875 L 0.3125 -2.8125 L 0.09375 -2.8125 L 0.015625 -2.78125 L 0 -2.6875 L 0.015625 -2.59375 L 0.109375 -2.359375 L 0.15625 -2.296875 L 0.171875 -2.21875 L 0.21875 -2.140625 L 0.28125 -1.984375 L 0.328125 -1.921875 L 0.4375 -1.625 L 0.484375 -1.5625 L 0.75 -0.953125 L 0.765625 -0.890625 L 0.828125 -0.75 L 0.859375 -0.671875 L 0.96875 -0.4375 L 1 -0.375 L 1.03125 -0.296875 Z M 1.125 -0.078125 "/></g></g></g><g fill="#000000" fill-opacity="1"><g transform="translate(49.296926, 11.046344)"><g><path d="M 0.296875 -0.109375 L 0.34375 -0.046875 L 0.421875 0 L 1.328125 0 L 1.390625 0.015625 L 1.640625 0 L 1.890625 0.015625 L 1.96875 0 L 2.046875 -0.03125 L 2.078125 -0.109375 L 2.09375 -0.1875 L 2.09375 -0.515625 L 2.046875 -0.59375 L 1.921875 -0.640625 L 1.390625 -0.640625 L 1.3125 -0.625 L 1.234375 -0.640625 L 1.140625 -0.625 L 1.0625 -0.671875 L 1.015625 -0.796875 L 1.03125 -1 L 1.0625 -1.078125 L 1.125 -1.125 L 1.28125 -1.125 L 1.375 -1.140625 L 1.578125 -1.125 L 1.84375 -1.125 L 1.921875 -1.171875 L 1.96875 -1.25 L 1.96875 -1.640625 L 1.9375 -1.71875 L 1.859375 -1.765625 L 1.125 -1.765625 L 1.0625 -1.8125 L 1.015625 -1.890625 L 1 -2.015625 L 1.046875 -2.125 L 1.171875 -2.15625 L 1.9375 -2.171875 L 2.03125 -2.203125 L 2.0625 -2.28125 L 2.0625 -2.453125 L 2.046875 -2.515625 L 2.046875 -2.609375 L 2.0625 -2.6875 L 2.03125 -2.765625 L 1.9375 -2.796875 L 1.625 -2.8125 L 1.546875 -2.796875 L 1.46875 -2.8125 L 1.28125 -2.796875 L 1.203125 -2.8125 L 0.984375 -2.8125 L 0.453125 -2.796875 L 0.34375 -2.78125 L 0.296875 -2.6875 L 0.3125 -2.53125 L 0.296875 -2.40625 L 0.3125 -2.203125 L 0.296875 -2.125 L 0.3125 -2.046875 L 0.3125 -1.328125 L 0.296875 -1.25 L 0.3125 -1.09375 L 0.296875 -0.921875 L 0.3125 -0.84375 L 0.296875 -0.75 L 0.3125 -0.671875 L 0.296875 -0.609375 L 0.296875 -0.4375 L 0.3125 -0.28125 L 0.3125 -0.203125 Z M 0.296875 -0.109375 "/></g></g></g><g fill="#000000" fill-opacity="1"><g transform="translate(51.601161, 11.046344)"><g><path d="M 2.375 -0.0625 L 2.484375 -0.015625 L 2.59375 0.015625 L 2.6875 -0.03125 L 2.71875 -0.109375 L 2.734375 -1.203125 L 2.71875 -1.3125 L 2.734375 -1.40625 L 2.71875 -1.890625 L 2.734375 -2.046875 L 2.71875 -2.125 L 2.71875 -2.28125 L 2.734375 -2.359375 L 2.734375 -2.6875 L 2.6875 -2.765625 L 2.59375 -2.796875 L 2.515625 -2.8125 L 2.4375 -2.8125 L 2.359375 -2.796875 L 2.265625 -2.8125 L 2.109375 -2.8125 L 2.015625 -2.765625 L 1.984375 -2.6875 L 1.96875 -1.953125 L 1.984375 -1.875 L 1.984375 -1.796875 L 1.96875 -1.703125 L 1.984375 -1.546875 L 1.953125 -1.484375 L 1.90625 -1.5 L 1.734375 -1.6875 L 1.671875 -1.734375 L 1.53125 -1.875 L 1.46875 -1.921875 L 1.421875 -1.984375 L 1.328125 -2.0625 L 1.203125 -2.171875 L 1.171875 -2.234375 L 1.09375 -2.28125 L 1.046875 -2.34375 L 0.984375 -2.390625 L 0.921875 -2.46875 L 0.703125 -2.6875 L 0.546875 -2.796875 L 0.4375 -2.828125 L 0.34375 -2.78125 L 0.296875 -2.703125 L 0.296875 -2.0625 L 0.3125 -1.890625 L 0.296875 -1.8125 L 0.296875 -1.65625 L 0.3125 -1.078125 L 0.296875 -1 L 0.296875 -0.515625 L 0.3125 -0.4375 L 0.296875 -0.28125 L 0.3125 -0.203125 L 0.3125 -0.125 L 0.34375 -0.03125 L 0.421875 0.015625 L 0.546875 0 L 0.75 0.015625 L 0.84375 0 L 0.9375 0.015625 L 1.015625 -0.03125 L 1.046875 -0.109375 L 1.03125 -0.1875 L 1.046875 -1.171875 L 1.03125 -1.265625 L 1.078125 -1.3125 L 1.125 -1.296875 L 1.703125 -0.734375 L 1.765625 -0.6875 L 2.15625 -0.296875 L 2.203125 -0.234375 L 2.265625 -0.171875 L 2.3125 -0.109375 Z M 2.375 -0.0625 "/></g></g></g><g fill="#000000" fill-opacity="1"><g transform="translate(54.633261, 11.046344)"><g><path d="M 0.765625 -0.125 L 0.796875 -0.046875 L 0.890625 0 L 0.96875 -0.015625 L 1.046875 0 L 1.125 -0.015625 L 1.375 -0.015625 L 1.453125 -0.046875 L 1.484375 -0.125 L 1.484375 -0.453125 L 1.46875 -0.515625 L 1.484375 -0.609375 L 1.484375 -0.921875 L 1.5 -1.09375 L 1.484375 -1.890625 L 1.484375 -2.0625 L 1.515625 -2.125 L 1.609375 -2.171875 L 2.046875 -2.171875 L 2.140625 -2.203125 L 2.171875 -2.28125 L 2.171875 -2.703125 L 2.140625 -2.78125 L 2.0625 -2.8125 L 1.484375 -2.8125 L 1.390625 -2.796875 L 0.203125 -2.8125 L 0.109375 -2.765625 L 0.078125 -2.6875 L 0.0625 -2.28125 L 0.109375 -2.203125 L 0.1875 -2.15625 L 0.296875 -2.171875 L 0.65625 -2.171875 L 0.734375 -2.125 L 0.765625 -2.046875 L 0.78125 -1.609375 L 0.765625 -1.484375 L 0.78125 -1.40625 L 0.765625 -1.328125 L 0.765625 -1.171875 L 0.78125 -1.046875 L 0.765625 -0.921875 L 0.765625 -0.765625 L 0.78125 -0.515625 L 0.765625 -0.4375 Z M 0.765625 -0.125 "/></g></g></g><g fill="#000000" fill-opacity="1"><g transform="translate(56.881198, 11.046344)"><g><path d="M 1.1875 0.03125 L 1.375 0.046875 L 1.578125 0.046875 L 1.734375 0 L 1.828125 -0.03125 L 1.90625 -0.046875 L 1.96875 -0.09375 L 2.046875 -0.125 L 2.109375 -0.171875 L 2.28125 -0.328125 L 2.375 -0.453125 L 2.40625 -0.53125 L 2.453125 -0.609375 L 2.46875 -0.6875 L 2.5 -1.09375 L 2.484375 -1.40625 L 2.5 -1.5 L 2.5 -1.5625 L 2.484375 -1.65625 L 2.484375 -1.734375 L 2.5 -1.8125 L 2.484375 -1.921875 L 2.5 -2.046875 L 2.5 -2.625 L 2.484375 -2.6875 L 2.453125 -2.78125 L 2.328125 -2.8125 L 1.953125 -2.8125 L 1.859375 -2.78125 L 1.8125 -2.6875 L 1.828125 -2.296875 L 1.8125 -2.21875 L 1.8125 -1.96875 L 1.828125 -1.890625 L 1.8125 -1.578125 L 1.828125 -1.5 L 1.8125 -1.40625 L 1.828125 -1.265625 L 1.8125 -1.1875 L 1.8125 -0.984375 L 1.796875 -0.859375 L 1.765625 -0.78125 L 1.734375 -0.71875 L 1.671875 -0.65625 L 1.5 -0.609375 L 1.265625 -0.609375 L 1.1875 -0.625 L 1.109375 -0.671875 L 1 -0.78125 L 0.96875 -0.875 L 0.96875 -1.578125 L 0.953125 -1.65625 L 0.953125 -2.296875 L 0.9375 -2.40625 L 0.9375 -2.484375 L 0.96875 -2.609375 L 0.96875 -2.6875 L 0.921875 -2.765625 L 0.828125 -2.8125 L 0.40625 -2.8125 L 0.328125 -2.765625 L 0.28125 -2.6875 L 0.28125 -2.453125 L 0.265625 -2.375 L 0.28125 -2.203125 L 0.265625 -2.0625 L 0.296875 -1.8125 L 0.265625 -1.734375 L 0.28125 -1.65625 L 0.28125 -1.5 L 0.265625 -1.421875 L 0.28125 -1.25 L 0.28125 -0.96875 L 0.296875 -0.84375 L 0.296875 -0.765625 L 0.328125 -0.609375 L 0.359375 -0.53125 L 0.4375 -0.390625 L 0.546875 -0.265625 L 0.59375 -0.21875 L 0.734375 -0.125 L 0.796875 -0.078125 L 0.875 -0.046875 L 0.953125 -0.03125 L 1.015625 0.015625 L 1.109375 0.015625 Z M 1.1875 0.03125 "/></g></g></g><g fill="#000000" fill-opacity="1"><g transform="translate(59.655931, 11.046344)"><g><path d="M 0.3125 -0.125 L 0.34375 -0.046875 L 0.421875 0 L 0.5 0 L 0.65625 -0.015625 L 0.75 0 L 0.859375 0 L 0.984375 -0.046875 L 1.015625 -0.109375 L 1.03125 -0.203125 L 1.015625 -0.28125 L 1.015625 -0.703125 L 1.046875 -0.78125 L 1.125 -0.828125 L 1.265625 -0.828125 L 1.375 -0.796875 L 1.4375 -0.734375 L 1.546875 -0.59375 L 1.5625 -0.515625 L 1.6875 -0.3125 L 1.734375 -0.234375 L 1.765625 -0.171875 L 1.8125 -0.109375 L 1.90625 -0.03125 L 2 -0.015625 L 2.140625 0 L 2.234375 -0.015625 L 2.3125 0 L 2.46875 0 L 2.5625 -0.015625 L 2.640625 -0.03125 L 2.65625 -0.109375 L 2.609375 -0.21875 L 2.484375 -0.40625 L 2.453125 -0.484375 L 2.390625 -0.546875 L 2.359375 -0.625 L 2.3125 -0.6875 L 2.1875 -0.890625 L 2.171875 -0.984375 L 2.21875 -1.078125 L 2.328125 -1.1875 L 2.375 -1.25 L 2.40625 -1.328125 L 2.453125 -1.40625 L 2.484375 -1.46875 L 2.515625 -1.625 L 2.53125 -1.9375 L 2.5 -2.015625 L 2.5 -2.09375 L 2.46875 -2.171875 L 2.359375 -2.390625 L 2.265625 -2.515625 L 2.078125 -2.671875 L 1.9375 -2.734375 L 1.59375 -2.8125 L 0.8125 -2.8125 L 0.734375 -2.796875 L 0.578125 -2.8125 L 0.40625 -2.8125 L 0.328125 -2.78125 L 0.296875 -2.6875 L 0.296875 -0.765625 L 0.3125 -0.53125 L 0.296875 -0.4375 Z M 1.125 -1.484375 L 1.0625 -1.515625 L 1.015625 -1.59375 L 1.015625 -2.046875 L 1.0625 -2.125 L 1.140625 -2.171875 L 1.421875 -2.171875 L 1.609375 -2.140625 L 1.734375 -2.0625 L 1.765625 -2.015625 L 1.796875 -1.9375 L 1.8125 -1.828125 L 1.796875 -1.71875 L 1.765625 -1.640625 L 1.71875 -1.5625 L 1.671875 -1.515625 L 1.609375 -1.5 L 1.296875 -1.46875 L 1.21875 -1.484375 Z M 1.125 -1.484375 "/></g></g></g><g fill="#000000" fill-opacity="1"><g transform="translate(62.442729, 11.046344)"><g><path d="M 0.296875 -0.109375 L 0.34375 -0.046875 L 0.421875 0 L 1.328125 0 L 1.390625 0.015625 L 1.640625 0 L 1.890625 0.015625 L 1.96875 0 L 2.046875 -0.03125 L 2.078125 -0.109375 L 2.09375 -0.1875 L 2.09375 -0.515625 L 2.046875 -0.59375 L 1.921875 -0.640625 L 1.390625 -0.640625 L 1.3125 -0.625 L 1.234375 -0.640625 L 1.140625 -0.625 L 1.0625 -0.671875 L 1.015625 -0.796875 L 1.03125 -1 L 1.0625 -1.078125 L 1.125 -1.125 L 1.28125 -1.125 L 1.375 -1.140625 L 1.578125 -1.125 L 1.84375 -1.125 L 1.921875 -1.171875 L 1.96875 -1.25 L 1.96875 -1.640625 L 1.9375 -1.71875 L 1.859375 -1.765625 L 1.125 -1.765625 L 1.0625 -1.8125 L 1.015625 -1.890625 L 1 -2.015625 L 1.046875 -2.125 L 1.171875 -2.15625 L 1.9375 -2.171875 L 2.03125 -2.203125 L 2.0625 -2.28125 L 2.0625 -2.453125 L 2.046875 -2.515625 L 2.046875 -2.609375 L 2.0625 -2.6875 L 2.03125 -2.765625 L 1.9375 -2.796875 L 1.625 -2.8125 L 1.546875 -2.796875 L 1.46875 -2.8125 L 1.28125 -2.796875 L 1.203125 -2.8125 L 0.984375 -2.8125 L 0.453125 -2.796875 L 0.34375 -2.78125 L 0.296875 -2.6875 L 0.3125 -2.53125 L 0.296875 -2.40625 L 0.3125 -2.203125 L 0.296875 -2.125 L 0.3125 -2.046875 L 0.3125 -1.328125 L 0.296875 -1.25 L 0.3125 -1.09375 L 0.296875 -0.921875 L 0.3125 -0.84375 L 0.296875 -0.75 L 0.3125 -0.671875 L 0.296875 -0.609375 L 0.296875 -0.4375 L 0.3125 -0.28125 L 0.3125 -0.203125 Z M 0.296875 -0.109375 "/></g></g></g><g fill="#000000" fill-opacity="1"><g transform="translate(64.746961, 11.046344)"><g><path d="M 1.171875 0.03125 L 1.28125 0.046875 L 1.40625 0.046875 L 1.796875 -0.03125 L 2.015625 -0.15625 L 2.140625 -0.234375 L 2.25 -0.359375 L 2.328125 -0.5 L 2.359375 -0.5625 L 2.390625 -0.640625 L 2.40625 -0.71875 L 2.40625 -0.96875 L 2.375 -1.125 L 2.296875 -1.265625 L 2.203125 -1.390625 L 2.125 -1.453125 L 1.921875 -1.546875 L 1.59375 -1.625 L 1.1875 -1.6875 L 1.015625 -1.75 L 0.953125 -1.78125 L 0.890625 -1.84375 L 0.890625 -2.046875 L 0.9375 -2.109375 L 1.015625 -2.15625 L 1.0625 -2.1875 L 1.140625 -2.203125 L 1.390625 -2.203125 L 1.484375 -2.171875 L 1.546875 -2.125 L 1.671875 -1.984375 L 1.796875 -1.953125 L 2.0625 -1.9375 L 2.140625 -1.953125 L 2.21875 -1.9375 L 2.28125 -1.984375 L 2.328125 -2.0625 L 2.296875 -2.21875 L 2.234375 -2.359375 L 2.171875 -2.421875 L 2.140625 -2.5 L 1.828125 -2.734375 L 1.609375 -2.8125 L 1.515625 -2.828125 L 1.453125 -2.828125 L 1.359375 -2.84375 L 1.140625 -2.84375 L 0.8125 -2.78125 L 0.53125 -2.640625 L 0.484375 -2.59375 L 0.40625 -2.546875 L 0.359375 -2.46875 L 0.3125 -2.421875 L 0.28125 -2.34375 L 0.25 -2.28125 L 0.1875 -2.046875 L 0.1875 -1.78125 L 0.21875 -1.671875 L 0.265625 -1.53125 L 0.375 -1.390625 L 0.484375 -1.296875 L 0.625 -1.203125 L 0.859375 -1.125 L 1 -1.09375 L 1.328125 -1.078125 L 1.40625 -1.0625 L 1.484375 -1.0625 L 1.625 -1 L 1.6875 -0.953125 L 1.703125 -0.84375 L 1.671875 -0.75 L 1.609375 -0.6875 L 1.546875 -0.65625 L 1.40625 -0.609375 L 1.171875 -0.609375 L 1.078125 -0.640625 L 1.015625 -0.65625 L 0.9375 -0.703125 L 0.890625 -0.765625 L 0.828125 -0.84375 L 0.75 -0.875 L 0.4375 -0.890625 L 0.359375 -0.875 L 0.28125 -0.875 L 0.203125 -0.84375 L 0.171875 -0.765625 L 0.171875 -0.671875 L 0.1875 -0.59375 L 0.25 -0.4375 L 0.359375 -0.3125 L 0.46875 -0.203125 L 0.546875 -0.15625 L 0.828125 -0.015625 L 0.921875 -0.015625 L 1 0.015625 Z M 1.171875 0.03125 "/></g></g></g></svg>