<svg xmlns="http://www.w3.org/2000/svg" xmlns:xlink="http://www.w3.org/1999/xlink" width="28" zoomAndPan="magnify" viewBox="0 0 21 20.25" height="27" preserveAspectRatio="xMidYMid meet" version="1.0"><defs><g/><clipPath id="f3483e1800"><path d="M 7 3 L 10 3 L 10 13.859375 L 7 13.859375 Z M 7 3 " clip-rule="nonzero"/></clipPath><clipPath id="1c7bb40693"><path d="M 3.058594 0 L 12 0 L 12 8 L 3.058594 8 Z M 3.058594 0 " clip-rule="nonzero"/></clipPath><clipPath id="703dacccbd"><path d="M 9 7 L 12 7 L 12 13.859375 L 9 13.859375 Z M 9 7 " clip-rule="nonzero"/></clipPath><clipPath id="80059ff339"><path d="M 4.542969 13.007812 L 14.65625 13.007812 L 14.65625 13.859375 L 4.542969 13.859375 Z M 4.542969 13.007812 " clip-rule="nonzero"/></clipPath></defs><g clip-path="url(#f3483e1800)"><path fill="#ff0000" d="M 8.644531 13.355469 C 8.644531 13.355469 9.46875 8.015625 7.214844 3.277344 L 7.539062 3.277344 C 7.539062 3.277344 9.148438 6.160156 9.78125 13.355469 L 8.644531 13.355469 " fill-opacity="1" fill-rule="nonzero"/></g><path fill="#ff0000" d="M 7.6875 4.09375 C 7.683594 4.09375 7.683594 4.09375 7.679688 4.089844 C 7.683594 4.089844 7.683594 4.089844 7.6875 4.085938 C 7.6875 4.089844 7.6875 4.09375 7.6875 4.09375 Z M 8.09375 3.722656 C 8.027344 3.722656 7.964844 3.738281 7.910156 3.765625 C 7.910156 3.753906 7.914062 3.738281 7.914062 3.722656 C 7.914062 3.496094 7.730469 3.3125 7.503906 3.3125 C 7.277344 3.3125 7.097656 3.496094 7.097656 3.722656 C 7.097656 3.886719 7.191406 4.027344 7.328125 4.089844 C 7.191406 4.15625 7.097656 4.296875 7.097656 4.460938 C 7.097656 4.683594 7.277344 4.867188 7.503906 4.867188 C 7.71875 4.867188 7.894531 4.703125 7.910156 4.496094 C 7.964844 4.523438 8.027344 4.539062 8.09375 4.539062 C 8.320312 4.539062 8.503906 4.355469 8.503906 4.132812 C 8.503906 3.90625 8.320312 3.722656 8.09375 3.722656 " fill-opacity="1" fill-rule="nonzero"/><g clip-path="url(#1c7bb40693)"><path fill="#ff0000" d="M 8.195312 3.222656 C 8.363281 3.085938 8.539062 2.96875 8.714844 2.875 L 8.949219 2.617188 L 8.867188 2.796875 C 9.089844 2.6875 9.320312 2.609375 9.539062 2.550781 L 9.71875 2.390625 L 9.636719 2.527344 C 9.832031 2.484375 10.019531 2.457031 10.191406 2.4375 L 10.527344 2.160156 L 10.355469 2.425781 C 10.878906 2.394531 11.246094 2.46875 11.25 2.464844 C 9.738281 0.917969 7.96875 2.625 7.96875 2.625 C 8.078125 2.414062 8.195312 2.230469 8.320312 2.066406 L 8.433594 1.71875 L 8.429688 1.921875 C 8.664062 1.640625 8.910156 1.429688 9.148438 1.273438 L 9.289062 0.980469 L 9.257812 1.203125 C 9.898438 0.816406 10.445312 0.8125 10.445312 0.8125 C 8.191406 0 7.5625 2.269531 7.5625 2.269531 C 6.886719 1.066406 5.832031 0.933594 5.832031 0.933594 C 6.003906 1.027344 6.148438 1.136719 6.273438 1.25 L 6.472656 1.296875 L 6.332031 1.308594 C 6.496094 1.472656 6.621094 1.644531 6.714844 1.804688 L 6.859375 1.882812 L 6.746094 1.863281 C 6.914062 2.164062 6.964844 2.40625 6.964844 2.40625 C 5.507812 0.714844 3.648438 1.585938 3.648438 1.585938 C 3.957031 1.566406 4.261719 1.597656 4.550781 1.660156 L 4.773438 1.582031 L 4.640625 1.679688 C 4.847656 1.730469 5.046875 1.796875 5.230469 1.867188 L 5.558594 1.832031 L 5.355469 1.921875 C 5.539062 2 5.707031 2.082031 5.851562 2.164062 L 6.089844 2.136719 L 5.929688 2.207031 C 6.257812 2.398438 6.460938 2.554688 6.460938 2.554688 C 4.054688 1.589844 3.066406 3.195312 3.066406 3.195312 C 3.292969 3.066406 3.535156 2.980469 3.78125 2.929688 L 4.078125 2.65625 L 3.9375 2.902344 C 4.378906 2.835938 4.824219 2.871094 5.191406 2.933594 L 5.449219 2.84375 L 5.300781 2.953125 C 5.765625 3.042969 6.082031 3.171875 6.082031 3.171875 C 3.0625 3.089844 3.0625 6.273438 3.0625 6.273438 C 3.414062 5.582031 3.777344 5.089844 4.117188 4.742188 L 4.277344 4.394531 L 4.25 4.617188 C 4.558594 4.324219 4.847656 4.148438 5.082031 4.042969 L 5.1875 3.816406 L 5.164062 4.011719 C 5.503906 3.875 5.71875 3.886719 5.71875 3.886719 C 3.953125 5.253906 4.503906 7.410156 4.503906 7.410156 C 4.636719 6.695312 4.847656 6.121094 5.082031 5.667969 L 5.101562 5.25 L 5.167969 5.507812 C 5.363281 5.164062 5.570312 4.894531 5.765625 4.6875 L 5.78125 4.292969 L 5.859375 4.585938 C 6.253906 4.191406 6.574219 4.046875 6.574219 4.046875 C 5.003906 5.875 5.851562 7.546875 5.851562 7.546875 C 5.871094 7.246094 5.914062 6.972656 5.972656 6.71875 L 5.882812 6.363281 L 6.007812 6.570312 C 6.054688 6.378906 6.113281 6.207031 6.171875 6.050781 L 6.085938 5.710938 L 6.21875 5.925781 C 6.28125 5.773438 6.34375 5.636719 6.40625 5.519531 L 6.289062 5.054688 L 6.484375 5.375 C 6.628906 5.117188 6.742188 4.980469 6.742188 4.980469 L 7.640625 3.972656 C 8.09375 3.910156 8.503906 3.914062 8.867188 3.953125 L 9.109375 3.78125 L 8.96875 3.964844 C 9.300781 4.007812 9.59375 4.082031 9.839844 4.167969 L 10.019531 4.109375 L 9.902344 4.191406 C 10.511719 4.410156 10.832031 4.691406 10.832031 4.691406 C 10.269531 3.054688 8.195312 3.222656 8.195312 3.222656 " fill-opacity="1" fill-rule="nonzero"/></g><g clip-path="url(#703dacccbd)"><path fill="#ff0000" d="M 10.78125 13.324219 C 10.78125 13.324219 10.335938 9.992188 11.742188 7.039062 L 11.472656 7.039062 C 11.472656 7.039062 10.367188 8.835938 9.972656 13.324219 L 10.78125 13.324219 " fill-opacity="1" fill-rule="nonzero"/></g><path fill="#ff0000" d="M 11.53125 7.34375 C 11.53125 7.34375 11.535156 7.347656 11.535156 7.347656 C 11.535156 7.347656 11.53125 7.347656 11.53125 7.351562 C 11.53125 7.347656 11.53125 7.347656 11.53125 7.34375 Z M 10.960938 7.375 C 10.960938 7.53125 11.089844 7.660156 11.246094 7.660156 C 11.292969 7.660156 11.335938 7.648438 11.375 7.628906 C 11.386719 7.773438 11.507812 7.890625 11.660156 7.890625 C 11.816406 7.890625 11.945312 7.761719 11.945312 7.605469 C 11.945312 7.492188 11.878906 7.390625 11.78125 7.347656 C 11.878906 7.300781 11.945312 7.203125 11.945312 7.089844 C 11.945312 6.933594 11.816406 6.804688 11.660156 6.804688 C 11.5 6.804688 11.375 6.933594 11.375 7.089844 C 11.375 7.101562 11.375 7.109375 11.375 7.121094 C 11.335938 7.101562 11.292969 7.089844 11.246094 7.089844 C 11.089844 7.089844 10.960938 7.21875 10.960938 7.375 " fill-opacity="1" fill-rule="nonzero"/><path fill="#ff0000" d="M 12.34375 7.261719 C 12.34375 7.261719 12.453125 7.253906 12.621094 7.320312 L 12.609375 7.226562 L 12.660156 7.339844 C 12.773438 7.390625 12.917969 7.476562 13.070312 7.621094 L 13.054688 7.511719 L 13.132812 7.683594 C 13.300781 7.855469 13.480469 8.09375 13.652344 8.433594 C 13.652344 8.433594 13.652344 6.867188 12.167969 6.910156 C 12.167969 6.910156 12.324219 6.847656 12.550781 6.800781 L 12.480469 6.746094 L 12.605469 6.792969 C 12.785156 6.761719 13.003906 6.742188 13.222656 6.777344 L 13.152344 6.652344 L 13.300781 6.789062 C 13.421875 6.816406 13.539062 6.855469 13.652344 6.921875 C 13.652344 6.921875 13.164062 6.128906 11.980469 6.605469 C 11.980469 6.605469 12.078125 6.527344 12.242188 6.433594 L 12.164062 6.398438 L 12.28125 6.414062 C 12.351562 6.375 12.433594 6.332031 12.523438 6.292969 L 12.425781 6.25 L 12.585938 6.269531 C 12.675781 6.230469 12.773438 6.199219 12.878906 6.175781 L 12.8125 6.125 L 12.921875 6.164062 C 13.0625 6.132812 13.214844 6.117188 13.367188 6.128906 C 13.367188 6.128906 12.449219 5.699219 11.734375 6.53125 C 11.734375 6.53125 11.757812 6.414062 11.839844 6.265625 L 11.785156 6.273438 L 11.855469 6.238281 C 11.902344 6.15625 11.960938 6.074219 12.042969 5.992188 L 11.972656 5.984375 L 12.074219 5.964844 C 12.132812 5.90625 12.207031 5.851562 12.289062 5.804688 C 12.289062 5.804688 11.769531 5.871094 11.4375 6.464844 C 11.4375 6.464844 11.128906 5.347656 10.019531 5.746094 C 10.019531 5.746094 10.289062 5.75 10.605469 5.941406 L 10.585938 5.832031 L 10.65625 5.972656 C 10.773438 6.050781 10.894531 6.15625 11.011719 6.292969 L 11.007812 6.191406 L 11.066406 6.363281 C 11.125 6.445312 11.183594 6.535156 11.238281 6.640625 C 11.238281 6.640625 10.367188 5.800781 9.625 6.5625 C 9.625 6.5625 9.804688 6.527344 10.0625 6.542969 L 9.980469 6.410156 L 10.144531 6.546875 C 10.230469 6.554688 10.320312 6.570312 10.417969 6.59375 L 10.375 6.523438 L 10.464844 6.605469 C 10.574219 6.632812 10.683594 6.671875 10.796875 6.726562 L 10.753906 6.636719 L 10.871094 6.761719 C 10.957031 6.808594 11.042969 6.867188 11.125 6.933594 C 11.125 6.933594 10.105469 6.851562 9.828125 7.65625 C 9.828125 7.65625 9.988281 7.519531 10.285156 7.410156 L 10.230469 7.371094 L 10.316406 7.398438 C 10.4375 7.355469 10.582031 7.320312 10.746094 7.300781 L 10.675781 7.210938 L 10.796875 7.292969 C 10.972656 7.273438 11.175781 7.273438 11.398438 7.300781 L 11.84375 7.800781 C 11.84375 7.800781 11.898438 7.867188 11.96875 7.992188 L 12.066406 7.835938 L 12.007812 8.0625 C 12.039062 8.121094 12.070312 8.191406 12.101562 8.265625 L 12.164062 8.160156 L 12.125 8.324219 C 12.152344 8.402344 12.179688 8.488281 12.203125 8.582031 L 12.265625 8.480469 L 12.222656 8.65625 C 12.25 8.78125 12.269531 8.914062 12.28125 9.0625 C 12.28125 9.0625 12.699219 8.242188 11.925781 7.339844 C 11.925781 7.339844 12.082031 7.410156 12.277344 7.605469 L 12.316406 7.460938 L 12.324219 7.65625 C 12.417969 7.757812 12.519531 7.890625 12.617188 8.058594 L 12.648438 7.929688 L 12.660156 8.136719 C 12.777344 8.363281 12.878906 8.644531 12.945312 8.996094 C 12.945312 8.996094 13.214844 7.933594 12.34375 7.261719 " fill-opacity="1" fill-rule="nonzero"/><g clip-path="url(#80059ff339)"><path fill="#ff0000" d="M 14.695312 13.894531 C 13.21875 13.613281 11.484375 13.449219 9.625 13.449219 C 7.761719 13.449219 6.027344 13.613281 4.550781 13.894531 C 5.746094 13.359375 7.574219 13.015625 9.625 13.015625 C 11.671875 13.015625 13.5 13.359375 14.695312 13.894531 " fill-opacity="1" fill-rule="nonzero"/></g><g fill="#2a4c09" fill-opacity="1"><g transform="translate(3.395187, 13.136282)"><g><path d="M 0.046875 -0.09375 L 0.0625 -0.015625 L 0.140625 0 L 0.5625 0 L 0.640625 -0.03125 L 0.71875 -0.09375 L 0.78125 -0.21875 L 0.84375 -0.296875 L 0.921875 -0.328125 L 1.203125 -0.328125 L 1.28125 -0.3125 L 1.375 -0.328125 L 1.4375 -0.328125 L 1.515625 -0.3125 L 1.6875 -0.328125 L 1.8125 -0.28125 L 1.890625 -0.21875 L 1.90625 -0.15625 L 1.953125 -0.09375 L 2.015625 -0.03125 L 2.109375 0 L 2.53125 0 L 2.609375 -0.015625 L 2.625 -0.09375 L 2.59375 -0.1875 L 2.5625 -0.265625 L 2.515625 -0.328125 L 2.5 -0.390625 L 2.4375 -0.515625 L 2.375 -0.65625 L 2.3125 -0.78125 L 2.265625 -0.921875 L 2.21875 -0.984375 L 2.1875 -1.0625 L 2.15625 -1.125 L 2.140625 -1.203125 L 2.09375 -1.25 L 2.078125 -1.328125 L 2.03125 -1.390625 L 1.96875 -1.515625 L 1.953125 -1.59375 L 1.875 -1.71875 L 1.859375 -1.78125 L 1.78125 -1.921875 L 1.765625 -1.984375 L 1.71875 -2.125 L 1.640625 -2.25 L 1.578125 -2.390625 L 1.546875 -2.453125 L 1.53125 -2.515625 L 1.453125 -2.59375 L 1.328125 -2.625 L 1.21875 -2.59375 L 1.140625 -2.515625 L 1.125 -2.453125 L 0.96875 -2.125 L 0.921875 -2.0625 L 0.71875 -1.59375 L 0.703125 -1.53125 L 0.65625 -1.453125 L 0.546875 -1.234375 L 0.515625 -1.15625 L 0.46875 -1.0625 L 0.4375 -0.984375 L 0.375 -0.859375 L 0.28125 -0.65625 L 0.171875 -0.390625 L 0.125 -0.328125 L 0.09375 -0.25 Z M 1.1875 -0.921875 L 1.125 -0.9375 L 1.109375 -1.015625 L 1.265625 -1.359375 L 1.296875 -1.421875 L 1.34375 -1.453125 L 1.390625 -1.421875 L 1.4375 -1.28125 L 1.46875 -1.21875 L 1.484375 -1.15625 L 1.53125 -1.078125 L 1.546875 -1.015625 L 1.546875 -0.953125 L 1.484375 -0.921875 Z M 1.1875 -0.921875 "/></g></g></g><g fill="#2a4c09" fill-opacity="1"><g transform="translate(5.343448, 13.136282)"><g><path d="M 0.90625 -0.078125 L 0.953125 0 L 1.046875 0.015625 L 1.1875 0.015625 L 1.265625 0 L 1.328125 -0.078125 L 1.453125 -0.359375 L 1.484375 -0.421875 L 1.5 -0.5 L 1.640625 -0.84375 L 1.65625 -0.90625 L 1.71875 -1.046875 L 1.75 -1.125 L 1.78125 -1.125 L 1.8125 -1.046875 L 1.828125 -0.984375 L 1.875 -0.921875 L 1.90625 -0.84375 L 1.921875 -0.765625 L 1.984375 -0.640625 L 2 -0.5625 L 2.0625 -0.421875 L 2.09375 -0.359375 L 2.125 -0.28125 L 2.140625 -0.21875 L 2.203125 -0.078125 L 2.265625 0 L 2.34375 0.03125 L 2.46875 0.015625 L 2.5625 -0.015625 L 2.625 -0.078125 L 2.640625 -0.140625 L 2.703125 -0.28125 L 2.75 -0.421875 L 2.8125 -0.5625 L 2.859375 -0.703125 L 2.890625 -0.78125 L 2.90625 -0.84375 L 2.9375 -0.921875 L 2.96875 -1.03125 L 3.046875 -1.203125 L 3.140625 -1.46875 L 3.171875 -1.546875 L 3.21875 -1.6875 L 3.25 -1.75 L 3.265625 -1.828125 L 3.296875 -1.890625 L 3.359375 -2.109375 L 3.40625 -2.171875 L 3.5 -2.484375 L 3.484375 -2.5625 L 3.375 -2.59375 L 2.90625 -2.59375 L 2.8125 -2.546875 L 2.765625 -2.484375 L 2.75 -2.40625 L 2.703125 -2.34375 L 2.640625 -2.125 L 2.609375 -2.0625 L 2.59375 -1.984375 L 2.546875 -1.875 L 2.390625 -1.234375 L 2.359375 -1.25 L 2.34375 -1.3125 L 2.296875 -1.375 L 2.296875 -1.4375 L 2.15625 -1.796875 L 2.140625 -1.875 L 2.109375 -1.9375 L 2.09375 -2.015625 L 1.9375 -2.4375 L 1.890625 -2.515625 L 1.796875 -2.546875 L 1.71875 -2.5625 L 1.640625 -2.515625 L 1.59375 -2.4375 L 1.53125 -2.296875 L 1.5 -2.15625 L 1.390625 -1.875 L 1.375 -1.796875 L 1.28125 -1.59375 L 1.28125 -1.515625 L 1.25 -1.453125 L 1.203125 -1.375 L 1.203125 -1.3125 L 1.15625 -1.234375 L 1.140625 -1.234375 L 0.921875 -2.046875 L 0.890625 -2.125 L 0.828125 -2.265625 L 0.8125 -2.34375 L 0.796875 -2.40625 L 0.78125 -2.484375 L 0.71875 -2.546875 L 0.625 -2.59375 L 0.328125 -2.59375 L 0.265625 -2.578125 L 0.125 -2.578125 L 0.046875 -2.5625 L 0.03125 -2.46875 L 0.046875 -2.375 L 0.078125 -2.3125 L 0.125 -2.171875 L 0.15625 -2.109375 L 0.1875 -2.03125 L 0.21875 -1.96875 L 0.28125 -1.75 L 0.328125 -1.6875 L 0.34375 -1.609375 L 0.375 -1.546875 L 0.390625 -1.46875 L 0.46875 -1.265625 L 0.484375 -1.203125 L 0.515625 -1.125 L 0.53125 -1.046875 L 0.8125 -0.359375 L 0.84375 -0.21875 Z M 0.90625 -0.078125 "/></g></g></g><g fill="#2a4c09" fill-opacity="1"><g transform="translate(10.738921, 13.136282)"><g><path d="M 0.90625 -0.078125 L 0.953125 0 L 1.046875 0.015625 L 1.1875 0.015625 L 1.265625 0 L 1.328125 -0.078125 L 1.453125 -0.359375 L 1.484375 -0.421875 L 1.5 -0.5 L 1.640625 -0.84375 L 1.65625 -0.90625 L 1.71875 -1.046875 L 1.75 -1.125 L 1.78125 -1.125 L 1.8125 -1.046875 L 1.828125 -0.984375 L 1.875 -0.921875 L 1.90625 -0.84375 L 1.921875 -0.765625 L 1.984375 -0.640625 L 2 -0.5625 L 2.0625 -0.421875 L 2.09375 -0.359375 L 2.125 -0.28125 L 2.140625 -0.21875 L 2.203125 -0.078125 L 2.265625 0 L 2.34375 0.03125 L 2.46875 0.015625 L 2.5625 -0.015625 L 2.625 -0.078125 L 2.640625 -0.140625 L 2.703125 -0.28125 L 2.75 -0.421875 L 2.8125 -0.5625 L 2.859375 -0.703125 L 2.890625 -0.78125 L 2.90625 -0.84375 L 2.9375 -0.921875 L 2.96875 -1.03125 L 3.046875 -1.203125 L 3.140625 -1.46875 L 3.171875 -1.546875 L 3.21875 -1.6875 L 3.25 -1.75 L 3.265625 -1.828125 L 3.296875 -1.890625 L 3.359375 -2.109375 L 3.40625 -2.171875 L 3.5 -2.484375 L 3.484375 -2.5625 L 3.375 -2.59375 L 2.90625 -2.59375 L 2.8125 -2.546875 L 2.765625 -2.484375 L 2.75 -2.40625 L 2.703125 -2.34375 L 2.640625 -2.125 L 2.609375 -2.0625 L 2.59375 -1.984375 L 2.546875 -1.875 L 2.390625 -1.234375 L 2.359375 -1.25 L 2.34375 -1.3125 L 2.296875 -1.375 L 2.296875 -1.4375 L 2.15625 -1.796875 L 2.140625 -1.875 L 2.109375 -1.9375 L 2.09375 -2.015625 L 1.9375 -2.4375 L 1.890625 -2.515625 L 1.796875 -2.546875 L 1.71875 -2.5625 L 1.640625 -2.515625 L 1.59375 -2.4375 L 1.53125 -2.296875 L 1.5 -2.15625 L 1.390625 -1.875 L 1.375 -1.796875 L 1.28125 -1.59375 L 1.28125 -1.515625 L 1.25 -1.453125 L 1.203125 -1.375 L 1.203125 -1.3125 L 1.15625 -1.234375 L 1.140625 -1.234375 L 0.921875 -2.046875 L 0.890625 -2.125 L 0.828125 -2.265625 L 0.8125 -2.34375 L 0.796875 -2.40625 L 0.78125 -2.484375 L 0.71875 -2.546875 L 0.625 -2.59375 L 0.328125 -2.59375 L 0.265625 -2.578125 L 0.125 -2.578125 L 0.046875 -2.5625 L 0.03125 -2.46875 L 0.046875 -2.375 L 0.078125 -2.3125 L 0.125 -2.171875 L 0.15625 -2.109375 L 0.1875 -2.03125 L 0.21875 -1.96875 L 0.28125 -1.75 L 0.328125 -1.6875 L 0.34375 -1.609375 L 0.375 -1.546875 L 0.390625 -1.46875 L 0.46875 -1.265625 L 0.484375 -1.203125 L 0.515625 -1.125 L 0.53125 -1.046875 L 0.8125 -0.359375 L 0.84375 -0.21875 Z M 0.90625 -0.078125 "/></g></g></g><g fill="#2a4c09" fill-opacity="1"><g transform="translate(13.991216, 13.136282)"><g><path d="M 0.171875 -0.109375 L 0.21875 -0.03125 L 0.28125 0 L 1.390625 0 L 1.453125 -0.03125 L 1.5 -0.09375 L 1.5 -0.46875 L 1.453125 -0.53125 L 1.203125 -0.609375 L 1.15625 -0.6875 L 1.171875 -1 L 1.15625 -1.140625 L 1.171875 -1.296875 L 1.15625 -1.40625 L 1.171875 -1.515625 L 1.15625 -1.59375 L 1.171875 -1.671875 L 1.15625 -1.75 L 1.15625 -1.90625 L 1.203125 -1.96875 L 1.28125 -2 L 1.359375 -2.015625 L 1.421875 -2.046875 L 1.46875 -2.125 L 1.46875 -2.484375 L 1.4375 -2.5625 L 1.3125 -2.59375 L 0.84375 -2.59375 L 0.765625 -2.578125 L 0.546875 -2.59375 L 0.46875 -2.578125 L 0.328125 -2.59375 L 0.25 -2.5625 L 0.203125 -2.484375 L 0.203125 -2.125 L 0.234375 -2.046875 L 0.46875 -1.96875 L 0.515625 -1.90625 L 0.5 -1.59375 L 0.5 -1.53125 L 0.515625 -1.4375 L 0.515625 -1.28125 L 0.5 -1.21875 L 0.515625 -1.0625 L 0.5 -1 L 0.515625 -0.84375 L 0.515625 -0.6875 L 0.46875 -0.609375 L 0.234375 -0.53125 L 0.1875 -0.46875 L 0.171875 -0.390625 Z M 0.171875 -0.109375 "/></g></g></g><g fill="#2a4c09" fill-opacity="1"><g transform="translate(15.391363, 13.136282)"><g><path d="M 0.09375 -0.109375 L 0.109375 -0.015625 L 0.1875 0 L 2.046875 0 L 2.109375 -0.046875 L 2.15625 -0.109375 L 2.15625 -0.265625 L 2.140625 -0.34375 L 2.15625 -0.40625 L 2.15625 -0.484375 L 2.109375 -0.546875 L 2.03125 -0.59375 L 1.25 -0.59375 L 1.140625 -0.625 L 1.140625 -0.6875 L 1.484375 -1.28125 L 1.5 -1.34375 L 1.53125 -1.40625 L 1.59375 -1.46875 L 1.640625 -1.59375 L 2.125 -2.484375 L 2.109375 -2.5625 L 2.03125 -2.59375 L 0.3125 -2.59375 L 0.21875 -2.5625 L 0.171875 -2.484375 L 0.1875 -2.40625 L 0.171875 -2.328125 L 0.1875 -2.265625 L 0.171875 -2.109375 L 0.21875 -2.03125 L 0.28125 -2 L 0.984375 -2 L 1.078125 -1.96875 L 1.078125 -1.890625 L 1.03125 -1.84375 L 0.9375 -1.640625 L 0.828125 -1.484375 L 0.765625 -1.3125 L 0.671875 -1.1875 L 0.640625 -1.125 L 0.59375 -1.046875 L 0.578125 -1 L 0.53125 -0.921875 L 0.5 -0.84375 L 0.171875 -0.265625 L 0.125 -0.203125 Z M 0.09375 -0.109375 "/></g></g></g><g fill="#000000" fill-opacity="1"><g transform="translate(1.5311, 13.070181)"><g><path d="M -0.015625 -0.015625 L 0.21875 0.265625 C 0.25 0.234375 0.328125 0.203125 0.421875 0.203125 L 0.515625 0.171875 L 1 0.734375 L 0.96875 0.828125 C 0.921875 0.90625 0.890625 0.984375 0.859375 1.015625 L 1.09375 1.28125 C 1.125 1.203125 1.15625 1.078125 1.21875 0.953125 L 1.484375 0.25 C 1.546875 0.140625 1.625 0.046875 1.65625 -0.015625 L 1.359375 -0.359375 C 1.3125 -0.328125 1.1875 -0.28125 1.0625 -0.234375 L 0.328125 -0.078125 C 0.203125 -0.046875 0.078125 -0.015625 -0.015625 -0.015625 Z M 0.765625 0.109375 L 1.125 0.03125 C 1.203125 0 1.25 -0.015625 1.328125 -0.046875 L 1.34375 -0.03125 C 1.296875 0.03125 1.265625 0.078125 1.234375 0.15625 L 1.09375 0.5 Z M 0.765625 0.109375 "/></g></g></g><g fill="#000000" fill-opacity="1"><g transform="translate(2.950416, 14.674049)"><g><path d="M 0.109375 0.09375 L 0.703125 0.546875 C 1.046875 0.828125 1.421875 0.828125 1.671875 0.515625 C 1.921875 0.203125 1.84375 -0.171875 1.5 -0.453125 L 0.90625 -0.90625 C 0.890625 -0.828125 0.8125 -0.75 0.734375 -0.65625 L 0.328125 -0.140625 C 0.25 -0.03125 0.1875 0.046875 0.109375 0.09375 Z M 0.53125 0.09375 L 1.015625 -0.515625 L 1.3125 -0.28125 C 1.53125 -0.109375 1.59375 0.125 1.4375 0.328125 C 1.296875 0.515625 1.046875 0.5 0.828125 0.328125 Z M 0.53125 0.09375 "/></g></g></g><g fill="#000000" fill-opacity="1"><g transform="translate(4.693276, 15.991665)"><g><path d="M 0.546875 0.28125 L 0.9375 0.484375 C 0.984375 0.421875 1.046875 0.328125 1.15625 0.234375 L 1.765625 -0.171875 C 1.875 -0.265625 1.984375 -0.34375 2.046875 -0.390625 L 1.75 -0.546875 C 1.71875 -0.5 1.671875 -0.46875 1.578125 -0.390625 L 1.03125 0.03125 C 0.96875 0.078125 0.921875 0.125 0.859375 0.171875 L 0.84375 0.15625 C 0.84375 0.078125 0.875 0.03125 0.875 -0.046875 L 0.859375 -0.765625 C 0.875 -0.875 0.890625 -0.921875 0.890625 -0.984375 L 0.578125 -1.140625 C 0.59375 -1.0625 0.59375 -0.921875 0.578125 -0.78125 L 0.59375 -0.046875 C 0.578125 0.0625 0.578125 0.1875 0.546875 0.28125 Z M 0.546875 0.28125 "/></g></g></g><g fill="#000000" fill-opacity="1"><g transform="translate(6.609758, 16.91832)"><g><path d="M 0.140625 0.046875 L 1.375 0.40625 L 1.5 0.140625 C 1.453125 0.15625 1.375 0.140625 1.21875 0.109375 L 0.515625 -0.109375 L 0.59375 -0.375 L 1.15625 -0.203125 C 1.234375 -0.1875 1.296875 -0.15625 1.34375 -0.15625 L 1.421875 -0.390625 C 1.375 -0.390625 1.3125 -0.421875 1.234375 -0.4375 L 0.671875 -0.609375 L 0.734375 -0.859375 L 1.4375 -0.640625 C 1.5625 -0.609375 1.625 -0.59375 1.671875 -0.546875 L 1.703125 -0.84375 L 0.5 -1.1875 C 0.515625 -1.109375 0.5 -1 0.453125 -0.890625 L 0.28125 -0.25 C 0.234375 -0.140625 0.1875 -0.03125 0.140625 0.046875 Z M 0.140625 0.046875 "/></g></g></g><g fill="#000000" fill-opacity="1"><g transform="translate(8.579197, 17.456387)"><g><path d="M 0.140625 0.015625 L 0.5 0.046875 C 0.484375 -0.015625 0.484375 -0.15625 0.5 -0.28125 L 0.546875 -0.875 L 0.5625 -0.875 L 1.375 0.125 L 1.640625 0.140625 L 1.71875 -0.828125 C 1.734375 -0.953125 1.765625 -1.0625 1.78125 -1.140625 L 1.421875 -1.171875 C 1.453125 -1.109375 1.453125 -1 1.4375 -0.875 L 1.390625 -0.265625 L 1.359375 -0.265625 L 0.59375 -1.234375 L 0.25 -1.265625 C 0.28125 -1.1875 0.28125 -1.078125 0.265625 -0.953125 L 0.21875 -0.296875 C 0.203125 -0.171875 0.171875 -0.0625 0.140625 0.015625 Z M 0.140625 0.015625 "/></g></g></g><g fill="#000000" fill-opacity="1"><g transform="translate(10.864217, 17.592219)"><g><path d="M 0.578125 -0.0625 L 0.921875 -0.09375 C 0.890625 -0.171875 0.875 -0.28125 0.859375 -0.40625 L 0.78125 -1.125 L 1.09375 -1.15625 C 1.21875 -1.171875 1.265625 -1.171875 1.328125 -1.15625 L 1.25 -1.4375 L -0.046875 -1.296875 L -0.078125 -1 C -0.015625 -1.03125 0.0625 -1.046875 0.171875 -1.0625 L 0.5 -1.09375 L 0.578125 -0.375 C 0.59375 -0.25 0.578125 -0.140625 0.578125 -0.0625 Z M 0.578125 -0.0625 "/></g></g></g><g fill="#000000" fill-opacity="1"><g transform="translate(12.809796, 17.348524)"><g><path d="M 0.84375 -0.21875 C 1.25 -0.34375 1.421875 -0.640625 1.3125 -0.984375 L 1.203125 -1.375 C 1.171875 -1.5 1.15625 -1.609375 1.140625 -1.6875 L 0.8125 -1.578125 C 0.859375 -1.515625 0.890625 -1.421875 0.921875 -1.296875 L 1.03125 -0.9375 C 1.09375 -0.734375 0.984375 -0.515625 0.765625 -0.453125 C 0.53125 -0.390625 0.328125 -0.484375 0.265625 -0.6875 L 0.15625 -1.046875 C 0.125 -1.171875 0.109375 -1.296875 0.09375 -1.359375 L -0.234375 -1.265625 C -0.1875 -1.203125 -0.140625 -1.09375 -0.109375 -0.96875 L 0 -0.578125 C 0.109375 -0.21875 0.421875 -0.09375 0.84375 -0.21875 Z M 0.84375 -0.21875 "/></g></g></g><g fill="#000000" fill-opacity="1"><g transform="translate(14.889999, 16.663763)"><g><path d="M 1.3125 -0.671875 C 1.390625 -0.71875 1.453125 -0.796875 1.453125 -0.859375 L 1.296875 -1.140625 C 1.28125 -1.0625 1.296875 -0.984375 1.1875 -0.9375 C 1.015625 -0.828125 0.90625 -1.15625 0.578125 -0.96875 L 0.5625 -0.96875 L 0.65625 -1.015625 C 0.921875 -1.15625 1.015625 -1.375 0.90625 -1.5625 C 0.8125 -1.75 0.578125 -1.765625 0.296875 -1.609375 L -0.46875 -1.203125 C -0.421875 -1.140625 -0.34375 -1.0625 -0.28125 -0.953125 L 0.015625 -0.375 C 0.078125 -0.265625 0.125 -0.140625 0.140625 -0.078125 L 0.4375 -0.234375 C 0.390625 -0.296875 0.328125 -0.375 0.265625 -0.484375 L 0.171875 -0.640625 C 0.21875 -0.6875 0.34375 -0.75 0.390625 -0.765625 C 0.84375 -1.03125 0.890625 -0.4375 1.3125 -0.671875 Z M 0.078125 -0.84375 L -0.078125 -1.125 L 0.390625 -1.375 C 0.53125 -1.453125 0.65625 -1.46875 0.6875 -1.375 C 0.75 -1.28125 0.6875 -1.171875 0.546875 -1.09375 Z M 0.078125 -0.84375 "/></g></g></g><g fill="#000000" fill-opacity="1"><g transform="translate(16.784842, 15.580275)"><g><path d="M 0.109375 -0.09375 L 1.109375 -0.90625 L 0.953125 -1.171875 C 0.9375 -1.109375 0.890625 -1.046875 0.765625 -0.953125 L 0.203125 -0.484375 L 0.03125 -0.6875 L 0.5 -1.0625 C 0.546875 -1.109375 0.59375 -1.15625 0.640625 -1.1875 L 0.484375 -1.390625 C 0.4375 -1.359375 0.390625 -1.3125 0.34375 -1.265625 L -0.125 -0.890625 L -0.296875 -1.09375 L 0.265625 -1.5625 C 0.375 -1.640625 0.4375 -1.6875 0.484375 -1.6875 L 0.28125 -1.875 L -0.703125 -1.078125 C -0.640625 -1.03125 -0.546875 -0.96875 -0.46875 -0.875 L -0.0625 -0.359375 C 0.015625 -0.265625 0.078125 -0.171875 0.109375 -0.09375 Z M 0.109375 -0.09375 "/></g></g></g><g fill="#000000" fill-opacity="1"><g transform="translate(18.328839, 14.254703)"><g><path d="M 0.546875 -0.59375 C 0.8125 -0.90625 0.84375 -1.203125 0.65625 -1.359375 C 0.25 -1.703125 -0.234375 -0.703125 -0.453125 -0.890625 C -0.546875 -0.953125 -0.4375 -1.125 -0.3125 -1.28125 C -0.171875 -1.453125 0 -1.59375 0.140625 -1.640625 L -0.0625 -1.8125 C -0.1875 -1.734375 -0.375 -1.578125 -0.5 -1.4375 C -0.75 -1.140625 -0.828125 -0.828125 -0.640625 -0.671875 C -0.25 -0.34375 0.265625 -1.296875 0.46875 -1.125 C 0.5625 -1.046875 0.484375 -0.921875 0.328125 -0.734375 C 0.171875 -0.546875 -0.03125 -0.375 -0.25 -0.3125 L -0.03125 -0.125 C 0.140625 -0.21875 0.40625 -0.421875 0.546875 -0.59375 Z M 0.546875 -0.59375 "/></g></g></g></svg>