<svg xmlns="http://www.w3.org/2000/svg" xmlns:xlink="http://www.w3.org/1999/xlink" width="500" zoomAndPan="magnify" viewBox="0 0 375 374.999991" height="500" preserveAspectRatio="xMidYMid meet" version="1.0"><defs><g/><clipPath id="6920dd9cc2"><path d="M 121.292969 111 L 195 111 L 195 174 L 121.292969 174 Z M 121.292969 111 " clip-rule="nonzero"/></clipPath><clipPath id="41d8179c9d"><path d="M 134.605469 222.171875 L 225.207031 222.171875 L 225.207031 229.773438 L 134.605469 229.773438 Z M 134.605469 222.171875 " clip-rule="nonzero"/></clipPath></defs><path fill="#ff0000" d="M 171.347656 225.261719 C 171.347656 225.261719 178.714844 177.421875 158.539062 134.964844 L 161.441406 134.964844 C 161.441406 134.964844 175.851562 160.804688 181.519531 225.261719 L 171.347656 225.261719 " fill-opacity="1" fill-rule="nonzero"/><path fill="#ff0000" d="M 162.765625 142.300781 C 162.738281 142.289062 162.714844 142.277344 162.6875 142.265625 C 162.714844 142.25 162.742188 142.238281 162.769531 142.222656 C 162.769531 142.25 162.765625 142.277344 162.765625 142.300781 Z M 166.40625 138.960938 C 165.8125 138.960938 165.253906 139.105469 164.757812 139.355469 C 164.773438 139.226562 164.78125 139.09375 164.78125 138.960938 C 164.78125 136.941406 163.144531 135.304688 161.121094 135.304688 C 159.101562 135.304688 157.464844 136.941406 157.464844 138.960938 C 157.464844 140.421875 158.320312 141.675781 159.558594 142.265625 C 158.320312 142.851562 157.464844 144.105469 157.464844 145.566406 C 157.464844 147.585938 159.101562 149.226562 161.121094 149.226562 C 163.035156 149.226562 164.601562 147.757812 164.765625 145.886719 C 165.257812 146.132812 165.816406 146.277344 166.40625 146.277344 C 168.425781 146.277344 170.066406 144.640625 170.066406 142.621094 C 170.066406 140.597656 168.425781 138.960938 166.40625 138.960938 " fill-opacity="1" fill-rule="nonzero"/><g clip-path="url(#6920dd9cc2)"><path fill="#ff0000" d="M 167.304688 134.496094 C 168.820312 133.253906 170.390625 132.214844 171.980469 131.351562 L 174.074219 129.050781 L 173.320312 130.667969 C 175.34375 129.695312 177.382812 128.984375 179.351562 128.476562 L 180.972656 127.019531 L 180.234375 128.261719 C 181.96875 127.859375 183.644531 127.609375 185.195312 127.460938 L 188.191406 124.953125 L 186.652344 127.351562 C 191.351562 127.078125 194.640625 127.710938 194.675781 127.707031 C 181.148438 113.832031 165.28125 129.132812 165.28125 129.132812 C 166.265625 127.25 167.324219 125.589844 168.425781 124.117188 L 169.464844 121 L 169.429688 122.835938 C 171.523438 120.304688 173.730469 118.414062 175.859375 117.003906 L 177.121094 114.40625 L 176.824219 116.394531 C 182.574219 112.921875 187.488281 112.871094 187.488281 112.871094 C 167.28125 105.609375 161.625 125.957031 161.625 125.957031 C 155.589844 115.148438 146.136719 113.960938 146.136719 113.960938 C 147.667969 114.804688 148.976562 115.785156 150.097656 116.820312 L 151.894531 117.230469 L 150.628906 117.328125 C 152.101562 118.800781 153.21875 120.359375 154.050781 121.789062 L 155.355469 122.480469 L 154.332031 122.289062 C 155.816406 125.007812 156.269531 127.152344 156.269531 127.152344 C 143.214844 112.023438 126.566406 119.820312 126.566406 119.820312 C 129.339844 119.625 132.070312 119.90625 134.652344 120.464844 L 136.640625 119.773438 L 135.457031 120.648438 C 137.328125 121.101562 139.109375 121.695312 140.765625 122.351562 L 143.683594 122.027344 L 141.882812 122.816406 C 143.527344 123.519531 145.023438 124.277344 146.328125 125 L 148.433594 124.765625 L 147.015625 125.386719 C 149.96875 127.082031 151.765625 128.503906 151.765625 128.503906 C 130.226562 119.847656 121.367188 134.242188 121.367188 134.242188 C 123.402344 133.070312 125.574219 132.316406 127.769531 131.859375 L 130.433594 129.390625 L 129.160156 131.613281 C 133.132812 131.011719 137.101562 131.320312 140.394531 131.890625 L 142.707031 131.085938 L 141.375 132.070312 C 145.527344 132.878906 148.382812 134.027344 148.382812 134.027344 C 121.3125 133.277344 121.3125 161.808594 121.3125 161.808594 C 124.46875 155.625 127.726562 151.226562 130.78125 148.101562 L 132.195312 144.980469 L 131.949219 146.960938 C 134.734375 144.355469 137.308594 142.789062 139.429688 141.847656 L 140.355469 139.796875 L 140.140625 141.546875 C 143.183594 140.332031 145.128906 140.433594 145.128906 140.433594 C 129.296875 152.683594 134.230469 171.984375 134.230469 171.984375 C 135.414062 165.59375 137.300781 160.464844 139.425781 156.378906 L 139.582031 152.636719 L 140.199219 154.957031 C 141.9375 151.886719 143.792969 149.46875 145.53125 147.59375 L 145.675781 144.0625 L 146.382812 146.707031 C 149.925781 143.144531 152.777344 141.871094 152.777344 141.871094 C 138.710938 158.261719 146.3125 173.222656 146.3125 173.222656 C 146.488281 170.542969 146.875 168.070312 147.382812 165.816406 L 146.578125 162.625 L 147.710938 164.46875 C 148.144531 162.777344 148.644531 161.222656 149.171875 159.8125 L 148.402344 156.765625 L 149.597656 158.714844 C 150.15625 157.332031 150.730469 156.113281 151.277344 155.054688 L 150.226562 150.90625 L 151.976562 153.761719 C 153.28125 151.457031 154.289062 150.234375 154.289062 150.234375 L 162.335938 141.191406 C 166.414062 140.648438 170.089844 140.667969 173.34375 141.019531 L 175.515625 139.5 L 174.253906 141.128906 C 177.230469 141.519531 179.828125 142.183594 182.03125 142.945312 L 183.644531 142.417969 L 182.613281 143.152344 C 188.0625 145.136719 190.9375 147.640625 190.9375 147.640625 C 185.914062 132.988281 167.304688 134.496094 167.304688 134.496094 " fill-opacity="1" fill-rule="nonzero"/></g><path fill="#ff0000" d="M 190.480469 224.976562 C 190.480469 224.976562 186.507812 195.140625 199.089844 168.660156 L 196.695312 168.660156 C 196.695312 168.660156 186.773438 184.773438 183.238281 224.976562 L 190.480469 224.976562 " fill-opacity="1" fill-rule="nonzero"/><path fill="#ff0000" d="M 197.195312 171.40625 C 197.214844 171.414062 197.234375 171.425781 197.253906 171.433594 C 197.234375 171.441406 197.214844 171.449219 197.199219 171.460938 C 197.199219 171.441406 197.195312 171.421875 197.195312 171.40625 Z M 192.101562 171.683594 C 192.101562 173.09375 193.246094 174.234375 194.65625 174.234375 C 195.070312 174.234375 195.457031 174.136719 195.804688 173.960938 C 195.914062 175.269531 197.011719 176.292969 198.347656 176.292969 C 199.757812 176.292969 200.898438 175.148438 200.898438 173.738281 C 200.898438 172.71875 200.300781 171.84375 199.4375 171.433594 C 200.300781 171.023438 200.898438 170.148438 200.898438 169.128906 C 200.898438 167.71875 199.757812 166.574219 198.347656 166.574219 C 196.933594 166.574219 195.792969 167.71875 195.792969 169.128906 C 195.792969 169.222656 195.796875 169.3125 195.808594 169.402344 C 195.460938 169.230469 195.070312 169.128906 194.65625 169.128906 C 193.246094 169.128906 192.101562 170.273438 192.101562 171.683594 " fill-opacity="1" fill-rule="nonzero"/><path fill="#ff0000" d="M 204.496094 170.664062 C 204.496094 170.664062 205.453125 170.613281 206.953125 171.210938 L 206.847656 170.351562 L 207.304688 171.359375 C 208.347656 171.824219 209.617188 172.59375 210.984375 173.878906 L 210.867188 172.902344 L 211.5625 174.441406 C 213.066406 175.980469 214.667969 178.144531 216.222656 181.1875 C 216.222656 181.1875 216.222656 167.140625 202.894531 167.511719 C 202.894531 167.511719 204.300781 166.945312 206.347656 166.546875 L 205.691406 166.0625 L 206.828125 166.457031 C 208.449219 166.179688 210.40625 166.027344 212.359375 166.320312 L 211.734375 165.226562 L 213.046875 166.445312 C 214.125 166.671875 215.195312 167.042969 216.195312 167.617188 C 216.195312 167.617188 211.835938 160.53125 201.230469 164.792969 C 201.230469 164.792969 202.117188 164.09375 203.570312 163.257812 L 202.871094 162.949219 L 203.910156 163.066406 C 204.550781 162.710938 205.289062 162.339844 206.097656 161.992188 L 205.210938 161.605469 L 206.648438 161.765625 C 207.464844 161.441406 208.339844 161.148438 209.261719 160.925781 L 208.675781 160.496094 L 209.660156 160.835938 C 210.929688 160.558594 212.273438 160.421875 213.636719 160.515625 C 213.636719 160.515625 205.4375 156.679688 199.011719 164.125 C 199.011719 164.125 199.234375 163.070312 199.96875 161.734375 L 199.464844 161.824219 L 200.105469 161.488281 C 200.515625 160.78125 201.066406 160.015625 201.792969 159.292969 L 201.167969 159.242188 L 202.050781 159.039062 C 202.601562 158.53125 203.246094 158.046875 204.003906 157.632812 C 204.003906 157.632812 199.347656 158.214844 196.375 163.539062 C 196.375 163.539062 193.59375 153.523438 183.644531 157.09375 C 183.644531 157.09375 186.0625 157.121094 188.894531 158.832031 L 188.746094 157.851562 L 189.371094 159.132812 C 190.417969 159.824219 191.503906 160.757812 192.535156 162.003906 L 192.515625 161.097656 L 193.03125 162.636719 C 193.570312 163.363281 194.09375 164.175781 194.578125 165.101562 C 194.578125 165.101562 186.765625 157.570312 180.105469 164.398438 C 180.125 164.402344 181.742188 164.089844 184.054688 164.226562 L 183.296875 163.042969 L 184.773438 164.28125 C 185.539062 164.351562 186.359375 164.476562 187.214844 164.671875 L 186.851562 164.0625 L 187.652344 164.78125 C 188.621094 165.03125 189.625 165.378906 190.621094 165.859375 L 190.25 165.058594 L 191.277344 166.195312 C 192.0625 166.621094 192.835938 167.128906 193.578125 167.742188 C 193.578125 167.742188 184.417969 167 181.945312 174.210938 C 181.945312 174.210938 183.363281 172.980469 186.042969 172.003906 L 185.535156 171.640625 L 186.332031 171.902344 C 187.417969 171.527344 188.695312 171.199219 190.160156 171.007812 L 189.539062 170.207031 L 190.609375 170.953125 C 192.210938 170.78125 194.019531 170.769531 196.027344 171.035156 L 199.988281 175.492188 C 199.988281 175.492188 200.484375 176.09375 201.125 177.226562 L 201.988281 175.820312 L 201.472656 177.863281 C 201.738281 178.382812 202.023438 178.984375 202.296875 179.664062 L 202.886719 178.703125 L 202.507812 180.207031 C 202.765625 180.898438 203.011719 181.664062 203.226562 182.496094 L 203.785156 181.589844 L 203.386719 183.160156 C 203.636719 184.269531 203.828125 185.488281 203.914062 186.808594 C 203.914062 186.808594 207.65625 179.441406 200.730469 171.371094 C 200.730469 171.371094 202.136719 172.003906 203.878906 173.753906 L 204.226562 172.453125 L 204.300781 174.191406 C 205.15625 175.117188 206.066406 176.308594 206.921875 177.816406 L 207.230469 176.671875 L 207.304688 178.523438 C 208.351562 180.53125 209.28125 183.050781 209.863281 186.199219 C 209.863281 186.199219 212.292969 176.695312 204.496094 170.664062 " fill-opacity="1" fill-rule="nonzero"/><g clip-path="url(#41d8179c9d)"><path fill="#ff0000" d="M 225.550781 230.085938 C 212.332031 227.570312 196.765625 226.121094 180.105469 226.121094 C 163.445312 226.121094 147.878906 227.570312 134.660156 230.085938 C 145.378906 225.296875 161.753906 222.238281 180.105469 222.238281 C 198.457031 222.238281 214.835938 225.296875 225.550781 230.085938 " fill-opacity="1" fill-rule="nonzero"/></g><g fill="#2a4c09" fill-opacity="1"><g transform="translate(124.304119, 223.307064)"><g><path d="M 0.4375 -0.890625 L 0.59375 -0.203125 L 1.265625 -0.03125 L 4.1875 -0.03125 L 5.046875 0.0625 L 5.8125 -0.265625 L 6.40625 -0.859375 L 6.96875 -1.984375 L 7.53125 -2.625 L 8.328125 -2.953125 L 9 -2.890625 L 10.859375 -2.921875 L 11.546875 -2.828125 L 12.3125 -2.921875 L 12.90625 -2.921875 L 13.609375 -2.859375 L 15.171875 -2.921875 L 16.265625 -2.5625 L 16.953125 -2.03125 L 17.125 -1.421875 L 17.484375 -0.828125 L 18.046875 -0.296875 L 18.921875 0.03125 L 19.515625 -0.03125 L 20.671875 0.0625 L 22.734375 0 L 23.328125 -0.203125 L 23.46875 -0.890625 L 23.265625 -1.71875 L 23.03125 -2.328125 L 22.59375 -2.890625 L 22.40625 -3.546875 L 22.0625 -4.046875 L 21.875 -4.671875 L 21.3125 -5.875 L 21.078125 -6.5 L 20.734375 -7.0625 L 20.28125 -8.296875 L 19.90625 -8.828125 L 19.640625 -9.484375 L 19.34375 -10.0625 L 19.109375 -10.71875 L 18.8125 -11.21875 L 18.625 -11.875 L 18.25 -12.484375 L 17.984375 -13.046875 L 17.65625 -13.609375 L 17.484375 -14.234375 L 16.828125 -15.40625 L 16.625 -16.03125 L 16.03125 -17.296875 L 15.859375 -17.828125 L 15.359375 -18.984375 L 14.703125 -20.21875 L 14.171875 -21.46875 L 13.875 -21.96875 L 13.671875 -22.59375 L 13.078125 -23.234375 L 11.953125 -23.53125 L 10.890625 -23.203125 L 10.25 -22.59375 L 10.0625 -22 L 8.625 -19.015625 L 8.265625 -18.421875 L 6.40625 -14.234375 L 6.234375 -13.671875 L 5.875 -13.078125 L 5.34375 -11.875 L 4.84375 -11.015625 L 4.609375 -10.390625 L 4.140625 -9.53125 L 3.953125 -8.828125 L 3.65625 -8.296875 L 3.421875 -7.640625 L 2.484375 -5.90625 L 1.53125 -3.484375 L 1.125 -2.953125 L 0.828125 -2.296875 Z M 10.6875 -8.203125 L 10.0625 -8.46875 L 9.953125 -9.125 L 11.28125 -12.140625 L 11.578125 -12.671875 L 12.015625 -13.015625 L 12.40625 -12.75 L 12.84375 -11.453125 L 13.203125 -10.890625 L 13.34375 -10.359375 L 13.671875 -9.6875 L 13.90625 -9.09375 L 13.84375 -8.5 L 13.28125 -8.234375 Z M 10.6875 -8.203125 "/></g></g></g><g fill="#2a4c09" fill-opacity="1"><g transform="translate(141.760474, 223.307064)"><g><path d="M 8.09375 -0.65625 L 8.59375 -0.03125 L 9.328125 0.203125 L 10.625 0.203125 L 11.390625 -0.0625 L 11.921875 -0.734375 L 12.515625 -1.890625 L 12.96875 -3.21875 L 13.234375 -3.75 L 13.40625 -4.40625 L 14.734375 -7.5625 L 14.875 -8.125 L 15.46875 -9.421875 L 15.671875 -10.015625 L 15.9375 -10.0625 L 16.265625 -9.390625 L 16.421875 -8.828125 L 16.765625 -8.203125 L 17.0625 -7.5625 L 17.21875 -6.90625 L 17.75 -5.703125 L 17.953125 -5.078125 L 18.453125 -3.84375 L 18.8125 -3.1875 L 19.046875 -2.59375 L 19.1875 -1.953125 L 19.6875 -0.765625 L 20.28125 -0.03125 L 21.046875 0.265625 L 22.171875 0.203125 L 23 -0.09375 L 23.5625 -0.703125 L 23.703125 -1.328125 L 24.296875 -2.5625 L 24.65625 -3.84375 L 25.1875 -5.015625 L 25.625 -6.34375 L 25.953125 -6.9375 L 26.078125 -7.5625 L 26.34375 -8.265625 L 26.609375 -9.21875 L 27.34375 -10.75 L 28.109375 -13.203125 L 28.46875 -13.84375 L 28.8125 -15.0625 L 29.109375 -15.734375 L 29.234375 -16.359375 L 29.5625 -16.953125 L 30.171875 -18.84375 L 30.53125 -19.421875 L 31.390625 -22.203125 L 31.265625 -23 L 30.234375 -23.265625 L 26.609375 -23.203125 L 26.015625 -23.234375 L 25.25 -22.859375 L 24.75 -22.265625 L 24.59375 -21.609375 L 24.296875 -21.046875 L 23.734375 -19.078125 L 23.4375 -18.421875 L 23.265625 -17.828125 L 22.859375 -16.828125 L 21.40625 -11.078125 L 21.109375 -11.15625 L 21 -11.75 L 20.640625 -12.3125 L 20.546875 -12.9375 L 19.34375 -16.125 L 19.21875 -16.765625 L 18.921875 -17.421875 L 18.8125 -18.09375 L 17.421875 -21.90625 L 16.921875 -22.5625 L 16.0625 -22.859375 L 15.4375 -22.90625 L 14.703125 -22.53125 L 14.296875 -21.875 L 13.703125 -20.578125 L 13.40625 -19.28125 L 12.484375 -16.859375 L 12.28125 -16.125 L 11.546875 -14.265625 L 11.453125 -13.640625 L 11.21875 -13.015625 L 10.859375 -12.3125 L 10.75 -11.75 L 10.390625 -11.078125 L 10.1875 -11.046875 L 8.296875 -18.390625 L 7.96875 -19.015625 L 7.46875 -20.3125 L 7.328125 -21 L 7.140625 -21.609375 L 6.96875 -22.265625 L 6.4375 -22.859375 L 5.609375 -23.265625 L 5.046875 -23.203125 L 2.953125 -23.234375 L 2.421875 -23.171875 L 1.15625 -23.171875 L 0.46875 -22.9375 L 0.296875 -22.171875 L 0.46875 -21.3125 L 0.765625 -20.671875 L 1.15625 -19.453125 L 1.453125 -18.84375 L 1.625 -18.15625 L 1.953125 -17.59375 L 2.59375 -15.703125 L 2.890625 -15.0625 L 3.046875 -14.46875 L 3.359375 -13.8125 L 3.484375 -13.203125 L 4.25 -11.390625 L 4.34375 -10.75 L 4.671875 -10.0625 L 4.78125 -9.421875 L 7.234375 -3.21875 L 7.5625 -1.921875 Z M 8.09375 -0.65625 "/></g></g></g><g fill="#2a4c09" fill-opacity="1"><g transform="translate(190.103752, 223.307064)"><g><path d="M 8.09375 -0.65625 L 8.59375 -0.03125 L 9.328125 0.203125 L 10.625 0.203125 L 11.390625 -0.0625 L 11.921875 -0.734375 L 12.515625 -1.890625 L 12.96875 -3.21875 L 13.234375 -3.75 L 13.40625 -4.40625 L 14.734375 -7.5625 L 14.875 -8.125 L 15.46875 -9.421875 L 15.671875 -10.015625 L 15.9375 -10.0625 L 16.265625 -9.390625 L 16.421875 -8.828125 L 16.765625 -8.203125 L 17.0625 -7.5625 L 17.21875 -6.90625 L 17.75 -5.703125 L 17.953125 -5.078125 L 18.453125 -3.84375 L 18.8125 -3.1875 L 19.046875 -2.59375 L 19.1875 -1.953125 L 19.6875 -0.765625 L 20.28125 -0.03125 L 21.046875 0.265625 L 22.171875 0.203125 L 23 -0.09375 L 23.5625 -0.703125 L 23.703125 -1.328125 L 24.296875 -2.5625 L 24.65625 -3.84375 L 25.1875 -5.015625 L 25.625 -6.34375 L 25.953125 -6.9375 L 26.078125 -7.5625 L 26.34375 -8.265625 L 26.609375 -9.21875 L 27.34375 -10.75 L 28.109375 -13.203125 L 28.46875 -13.84375 L 28.8125 -15.0625 L 29.109375 -15.734375 L 29.234375 -16.359375 L 29.5625 -16.953125 L 30.171875 -18.84375 L 30.53125 -19.421875 L 31.390625 -22.203125 L 31.265625 -23 L 30.234375 -23.265625 L 26.609375 -23.203125 L 26.015625 -23.234375 L 25.25 -22.859375 L 24.75 -22.265625 L 24.59375 -21.609375 L 24.296875 -21.046875 L 23.734375 -19.078125 L 23.4375 -18.421875 L 23.265625 -17.828125 L 22.859375 -16.828125 L 21.40625 -11.078125 L 21.109375 -11.15625 L 21 -11.75 L 20.640625 -12.3125 L 20.546875 -12.9375 L 19.34375 -16.125 L 19.21875 -16.765625 L 18.921875 -17.421875 L 18.8125 -18.09375 L 17.421875 -21.90625 L 16.921875 -22.5625 L 16.0625 -22.859375 L 15.4375 -22.90625 L 14.703125 -22.53125 L 14.296875 -21.875 L 13.703125 -20.578125 L 13.40625 -19.28125 L 12.484375 -16.859375 L 12.28125 -16.125 L 11.546875 -14.265625 L 11.453125 -13.640625 L 11.21875 -13.015625 L 10.859375 -12.3125 L 10.75 -11.75 L 10.390625 -11.078125 L 10.1875 -11.046875 L 8.296875 -18.390625 L 7.96875 -19.015625 L 7.46875 -20.3125 L 7.328125 -21 L 7.140625 -21.609375 L 6.96875 -22.265625 L 6.4375 -22.859375 L 5.609375 -23.265625 L 5.046875 -23.203125 L 2.953125 -23.234375 L 2.421875 -23.171875 L 1.15625 -23.171875 L 0.46875 -22.9375 L 0.296875 -22.171875 L 0.46875 -21.3125 L 0.765625 -20.671875 L 1.15625 -19.453125 L 1.453125 -18.84375 L 1.625 -18.15625 L 1.953125 -17.59375 L 2.59375 -15.703125 L 2.890625 -15.0625 L 3.046875 -14.46875 L 3.359375 -13.8125 L 3.484375 -13.203125 L 4.25 -11.390625 L 4.34375 -10.75 L 4.671875 -10.0625 L 4.78125 -9.421875 L 7.234375 -3.21875 L 7.5625 -1.921875 Z M 8.09375 -0.65625 "/></g></g></g><g fill="#2a4c09" fill-opacity="1"><g transform="translate(219.244207, 223.307064)"><g><path d="M 1.59375 -0.96875 L 1.921875 -0.265625 L 2.59375 -0.03125 L 12.4375 0.03125 L 13.078125 -0.296875 L 13.4375 -0.890625 L 13.4375 -1.625 L 13.375 -2.21875 L 13.46875 -4.25 L 13.015625 -4.8125 L 10.78125 -5.515625 L 10.421875 -6.171875 L 10.484375 -8.890625 L 10.359375 -10.21875 L 10.484375 -11.609375 L 10.421875 -12.609375 L 10.484375 -13.640625 L 10.421875 -14.265625 L 10.484375 -14.9375 L 10.421875 -15.625 L 10.421875 -17.03125 L 10.78125 -17.625 L 11.421875 -17.984375 L 12.140625 -18.015625 L 12.78125 -18.390625 L 13.140625 -19.015625 L 13.140625 -20.96875 L 13.203125 -21.578125 L 13.140625 -22.234375 L 12.875 -22.90625 L 11.8125 -23.203125 L 7.59375 -23.234375 L 6.875 -23.171875 L 4.84375 -23.203125 L 4.21875 -23.171875 L 2.921875 -23.234375 L 2.1875 -22.90625 L 1.828125 -22.203125 L 1.828125 -21.578125 L 1.765625 -21 L 1.765625 -20.28125 L 1.828125 -19.609375 L 1.828125 -18.984375 L 2.15625 -18.359375 L 4.1875 -17.65625 L 4.609375 -17.0625 L 4.515625 -14.234375 L 4.546875 -13.671875 L 4.640625 -12.90625 L 4.609375 -11.546875 L 4.546875 -10.890625 L 4.671875 -9.59375 L 4.515625 -8.921875 L 4.640625 -7.5 L 4.578125 -6.203125 L 4.25 -5.46875 L 2.0625 -4.78125 L 1.65625 -4.140625 L 1.59375 -3.515625 Z M 1.59375 -0.96875 "/></g></g></g><g fill="#2a4c09" fill-opacity="1"><g transform="translate(231.78948, 223.307064)"><g><path d="M 0.828125 -1 L 1 -0.203125 L 1.6875 -0.03125 L 18.3125 0 L 18.953125 -0.390625 L 19.34375 -1.03125 L 19.28125 -1.65625 L 19.375 -2.328125 L 19.25 -3.015625 L 19.3125 -3.625 L 19.28125 -4.34375 L 18.953125 -4.9375 L 18.21875 -5.28125 L 17.5625 -5.34375 L 16.953125 -5.28125 L 11.1875 -5.3125 L 10.25 -5.609375 L 10.1875 -6.140625 L 13.234375 -11.484375 L 13.4375 -12.078125 L 13.765625 -12.609375 L 14.234375 -13.203125 L 14.703125 -14.34375 L 19.015625 -22.203125 L 18.890625 -23.03125 L 18.21875 -23.234375 L 15 -23.203125 L 14.34375 -23.265625 L 2.859375 -23.203125 L 1.890625 -22.90625 L 1.5 -22.265625 L 1.625 -21.609375 L 1.5625 -20.875 L 1.65625 -20.28125 L 1.5625 -18.890625 L 1.921875 -18.25 L 2.5625 -17.921875 L 3.15625 -17.984375 L 3.84375 -17.890625 L 5.9375 -17.859375 L 7.140625 -17.953125 L 7.734375 -17.859375 L 8.859375 -17.890625 L 9.6875 -17.65625 L 9.625 -16.984375 L 9.265625 -16.46875 L 8.359375 -14.671875 L 7.46875 -13.234375 L 6.796875 -11.75 L 6 -10.625 L 5.734375 -10.015625 L 5.375 -9.390625 L 5.171875 -8.890625 L 4.78125 -8.265625 L 4.484375 -7.5625 L 1.5625 -2.390625 L 1.15625 -1.828125 Z M 0.828125 -1 "/></g></g></g><g fill="#000000" fill-opacity="1"><g transform="translate(107.60199, 222.714813)"><g><path d="M -0.125 -0.15625 L 1.96875 2.3125 C 2.328125 2.09375 2.921875 1.953125 3.8125 1.703125 L 4.796875 1.484375 L 9.03125 6.453125 L 8.671875 7.390625 C 8.3125 8.3125 8.046875 8.8125 7.75 9.140625 L 9.84375 11.59375 C 10.046875 10.828125 10.421875 9.671875 10.90625 8.546875 L 13.4375 2.265625 C 13.84375 1.34375 14.46875 0.421875 14.9375 -0.171875 L 12.328125 -3.25 C 11.765625 -2.921875 10.796875 -2.46875 9.625 -2.1875 L 3.046875 -0.6875 C 1.875 -0.4375 0.640625 -0.234375 -0.125 -0.15625 Z M 6.90625 0.9375 L 10.125 0.203125 C 10.796875 0.015625 11.328125 -0.1875 11.984375 -0.421875 L 12.078125 -0.3125 C 11.734375 0.265625 11.421875 0.78125 11.140625 1.390625 L 9.90625 4.46875 Z M 6.90625 0.9375 "/></g></g></g><g fill="#000000" fill-opacity="1"><g transform="translate(120.319006, 237.085414)"><g><path d="M 1.046875 0.828125 L 6.25 4.953125 C 9.421875 7.453125 12.828125 7.390625 15.046875 4.578125 C 17.28125 1.765625 16.5625 -1.5625 13.390625 -4.0625 L 8.1875 -8.1875 C 7.921875 -7.578125 7.40625 -6.71875 6.71875 -5.84375 L 3 -1.15625 C 2.296875 -0.265625 1.59375 0.453125 1.046875 0.828125 Z M 4.671875 0.828125 L 9.03125 -4.671875 L 11.859375 -2.421875 C 13.8125 -0.890625 14.375 1.234375 13 2.953125 C 11.640625 4.6875 9.453125 4.609375 7.5 3.078125 Z M 4.671875 0.828125 "/></g></g></g><g fill="#000000" fill-opacity="1"><g transform="translate(135.934971, 248.891201)"><g><path d="M 4.890625 2.5 L 8.375 4.28125 C 8.75 3.75 9.5 3.015625 10.453125 2.234375 L 15.96875 -1.640625 C 16.90625 -2.421875 17.828125 -3.078125 18.515625 -3.4375 L 15.703125 -4.875 C 15.4375 -4.5 15.0625 -4.0625 14.3125 -3.46875 L 9.21875 0.21875 C 8.671875 0.65625 8.265625 1 7.765625 1.46875 L 7.65625 1.40625 C 7.71875 0.75 7.75 0.15625 7.796875 -0.515625 L 7.796875 -6.796875 C 7.859375 -7.75 8 -8.3125 8.125 -8.75 L 5.234375 -10.234375 C 5.34375 -9.46875 5.34375 -8.34375 5.296875 -7.109375 L 5.359375 -0.359375 C 5.28125 0.625 5.109375 1.734375 4.890625 2.5 Z M 4.890625 2.5 "/></g></g></g><g fill="#000000" fill-opacity="1"><g transform="translate(153.106585, 257.194013)"><g><path d="M 1.28125 0.375 L 12.40625 3.609375 L 13.59375 1.25 C 13.0625 1.359375 12.3125 1.3125 11.046875 0.953125 L 4.625 -0.921875 L 5.328125 -3.34375 L 10.421875 -1.859375 C 11.1875 -1.640625 11.6875 -1.46875 12.03125 -1.296875 L 12.6875 -3.53125 C 12.296875 -3.578125 11.78125 -3.703125 11.015625 -3.921875 L 5.921875 -5.40625 L 6.625 -7.765625 L 12.953125 -5.921875 C 14.046875 -5.609375 14.703125 -5.3125 15.015625 -5.03125 L 15.3125 -7.53125 L 4.5 -10.671875 C 4.484375 -10 4.328125 -9.015625 4.03125 -7.953125 L 2.34375 -2.203125 C 2.03125 -1.125 1.640625 -0.1875 1.28125 0.375 Z M 1.28125 0.375 "/></g></g></g><g fill="#000000" fill-opacity="1"><g transform="translate(170.752706, 262.015053)"><g><path d="M 1.328125 0.109375 L 4.46875 0.390625 C 4.375 -0.203125 4.328125 -1.4375 4.421875 -2.5625 L 4.890625 -7.9375 L 5.09375 -7.921875 L 12.328125 1.0625 L 14.6875 1.265625 L 15.4375 -7.453125 C 15.53125 -8.5625 15.71875 -9.53125 15.953125 -10.15625 L 12.8125 -10.4375 C 12.90625 -9.90625 12.96875 -8.84375 12.859375 -7.71875 L 12.40625 -2.375 L 12.203125 -2.390625 L 5.28125 -11.078125 L 2.3125 -11.34375 C 2.46875 -10.6875 2.484375 -9.6875 2.390625 -8.578125 L 1.875 -2.609375 C 1.78125 -1.5 1.578125 -0.515625 1.328125 0.109375 Z M 1.328125 0.109375 "/></g></g></g><g fill="#000000" fill-opacity="1"><g transform="translate(191.226407, 263.23213)"><g><path d="M 5.109375 -0.546875 L 8.25 -0.890625 C 7.984375 -1.53125 7.78125 -2.484375 7.65625 -3.609375 L 6.953125 -10.078125 L 9.78125 -10.390625 C 10.859375 -10.5 11.484375 -10.46875 12.03125 -10.34375 L 11.265625 -12.796875 L -0.375 -11.53125 L -0.625 -8.96875 C -0.078125 -9.234375 0.5 -9.375 1.5625 -9.5 L 4.40625 -9.796875 L 5.109375 -3.328125 C 5.234375 -2.203125 5.21875 -1.234375 5.109375 -0.546875 Z M 5.109375 -0.546875 "/></g></g></g><g fill="#000000" fill-opacity="1"><g transform="translate(208.658728, 261.048614)"><g><path d="M 7.421875 -2.03125 C 11.21875 -3.1875 12.78125 -5.75 11.828125 -8.875 L 10.734375 -12.4375 C 10.421875 -13.484375 10.234375 -14.484375 10.21875 -15.15625 L 7.203125 -14.234375 C 7.578125 -13.671875 7.984375 -12.703125 8.296875 -11.65625 L 9.265625 -8.484375 C 9.875 -6.5 8.84375 -4.78125 6.78125 -4.15625 C 4.734375 -3.53125 2.953125 -4.390625 2.34375 -6.375 L 1.375 -9.546875 C 1.0625 -10.59375 0.84375 -11.625 0.828125 -12.28125 L -2.171875 -11.359375 C -1.828125 -10.796875 -1.40625 -9.875 -1.09375 -8.828125 L 0 -5.265625 C 0.984375 -2.046875 3.75 -0.90625 7.421875 -2.03125 Z M 7.421875 -2.03125 "/></g></g></g><g fill="#000000" fill-opacity="1"><g transform="translate(227.297291, 254.913201)"><g><path d="M 11.75 -6.0625 C 12.484375 -6.46875 13.015625 -7.140625 13.09375 -7.765625 L 11.65625 -10.21875 C 11.71875 -9.46875 11.59375 -8.875 10.8125 -8.453125 C 9.21875 -7.59375 8.1875 -10.34375 5.140625 -8.703125 L 5.03125 -8.640625 L 4.953125 -8.765625 L 5.84375 -9.234375 C 8.171875 -10.5 9.125 -12.484375 8.234375 -14.109375 C 7.3125 -15.828125 5.140625 -15.84375 2.703125 -14.53125 L -4.28125 -10.75 C -3.828125 -10.28125 -3.25 -9.453125 -2.71875 -8.484375 L 0.125 -3.21875 C 0.65625 -2.21875 1.03125 -1.3125 1.1875 -0.640625 L 3.953125 -2.140625 C 3.484375 -2.625 2.96875 -3.359375 2.453125 -4.328125 L 1.625 -5.828125 C 1.921875 -6.125 3.046875 -6.75 3.453125 -6.984375 C 7.609375 -9.21875 7.96875 -4.03125 11.75 -6.0625 Z M 0.6875 -7.5625 L -0.71875 -10.15625 L 3.53125 -12.453125 C 4.765625 -13.125 5.875 -13.109375 6.3125 -12.296875 C 6.765625 -11.453125 6.171875 -10.53125 4.828125 -9.8125 Z M 0.6875 -7.5625 "/></g></g></g><g fill="#000000" fill-opacity="1"><g transform="translate(244.274997, 245.20518)"><g><path d="M 1.03125 -0.84375 L 9.984375 -8.203125 L 8.6875 -10.515625 C 8.5 -10.015625 8.03125 -9.421875 7.015625 -8.59375 L 1.84375 -4.34375 L 0.25 -6.296875 L 4.34375 -9.65625 C 4.953125 -10.171875 5.390625 -10.46875 5.734375 -10.671875 L 4.25 -12.46875 C 4 -12.171875 3.59375 -11.8125 2.984375 -11.296875 L -1.109375 -7.9375 L -2.6875 -9.84375 L 2.390625 -14.03125 C 3.28125 -14.75 3.90625 -15.125 4.3125 -15.21875 L 2.4375 -16.890625 L -6.265625 -9.734375 C -5.71875 -9.359375 -5 -8.65625 -4.296875 -7.8125 L -0.484375 -3.1875 C 0.21875 -2.3125 0.78125 -1.46875 1.03125 -0.84375 Z M 1.03125 -0.84375 "/></g></g></g><g fill="#000000" fill-opacity="1"><g transform="translate(258.109144, 233.328099)"><g><path d="M 4.765625 -5.3125 C 7.15625 -8.171875 7.6875 -10.859375 6 -12.28125 C 2.40625 -15.296875 -2.21875 -6.40625 -4.125 -8.015625 C -4.890625 -8.65625 -4.03125 -10.0625 -2.84375 -11.484375 C -1.59375 -12.96875 0.03125 -14.1875 1.359375 -14.671875 L -0.5 -16.234375 C -1.75 -15.578125 -3.34375 -14.265625 -4.546875 -12.828125 C -6.703125 -10.265625 -7.546875 -7.4375 -5.84375 -6 C -2.203125 -2.953125 2.46875 -11.78125 4.3125 -10.234375 C 5.09375 -9.578125 4.421875 -8.265625 3.078125 -6.65625 C 1.5625 -4.84375 -0.296875 -3.453125 -2.25 -2.828125 L -0.328125 -1.078125 C 1.375 -2 3.484375 -3.78125 4.765625 -5.3125 Z M 4.765625 -5.3125 "/></g></g></g></svg>